$MeshFormat
2.2 0 8
$EndMeshFormat
$PhysicalNames
4
2 1 "inlet"
2 2 "outlet"
2 3 "wall"
3 100 "fluid"
$EndPhysicalNames
$Nodes
507
1 870.624272745488 842.245775886451 64.9999999999998
2 860.624272745488 842.245775886454 54.9999999999998
3 870.624272745487 892.245775886454 65.0000000000193
4 870.624272745488 827.245775886454 50.0000000000194
5 860.624272745487 837.245775886454 50.0000000000194
6 870.624272745486 827.245775886454 1.93564441756917e-11
7 869.2845267833325 842.2457758864504 69.9999999999998
8 865.624272745488 842.24577588645 73.66025403784418
9 860.624272745488 842.2457758864502 74.9999999999998
10 855.624272745488 842.2457758864509 73.6602540378442
11 851.9640187076436 842.2457758864518 69.99999999999982
12 850.624272745488 842.2457758864529 64.99999999999982
13 851.9640187076436 842.2457758864535 59.99999999999981
14 855.624272745488 842.2457758864539 56.33974596215542
15 870.624272745488 847.2457758864514 65.0000000000193
16 870.6242727454879 852.2457758864516 65.0000000000193
17 870.6242727454878 857.245775886452 65.0000000000193
18 870.6242727454877 862.2457758864523 65.0000000000193
19 870.6242727454876 867.2457758864525 65.0000000000193
20 870.6242727454875 872.2457758864529 65.0000000000193
21 870.6242727454874 877.2457758864531 65.0000000000193
22 870.6242727454872 882.2457758864534 65.0000000000193
23 870.6242727454871 887.2457758864537 65.0000000000193
24 869.2845267833314 892.245775886454 70.00000000001931
25 865.624272745487 892.245775886454 73.66025403786369
26 860.624272745487 892.245775886454 75.0000000000193
27 855.624272745487 892.245775886454 73.66025403786367
28 851.9640187076426 892.245775886454 70.00000000001924
29 850.624272745487 892.245775886454 65.00000000001924
30 851.9640187076427 892.245775886454 60.00000000001926
31 855.624272745487 892.245775886454 56.33974596217489
32 860.624272745487 892.245775886454 55.0000000000193
33 865.624272745487 892.245775886454 56.33974596217492
34 869.2845267833314 892.245775886454 60.00000000001931
35 865.624272745488 842.245775886453 56.33974596215542
36 869.2845267833325 842.2457758864521 59.99999999999981
37 869.2845267833322 832.2457758864543 50.0000000000194
38 865.6242727454875 835.9060299242988 50.0000000000194
39 860.6242727454878 838.7102419805282 53.53553390593945
40 855.6242727454872 835.906029924298 50.0000000000194
41 851.9640187076433 832.2457758864533 50.0000000000194
42 850.624272745488 827.2457758864533 50.0000000000194
43 851.964018707644 822.2457758864535 50.0000000000194
44 855.6242727454884 818.5855218486093 50.0000000000194
45 860.6242727454884 817.245775886454 50.0000000000194
46 865.6242727454883 818.5855218486097 50.0000000000194
47 869.2845267833325 822.2457758864541 50.0000000000194
48 870.624272745487 827.245775886454 45.0000000000194
49 870.6242727454869 827.245775886454 40.0000000000194
50 870.6242727454868 827.245775886454 35.00000000001938
51 870.6242727454867 827.245775886454 30.00000000001937
52 870.6242727454866 827.245775886454 25.00000000001936
53 870.6242727454865 827.245775886454 20.00000000001934
54 870.6242727454863 827.245775886454 15.00000000001934
55 870.6242727454862 827.245775886454 10.00000000001933
56 870.6242727454861 827.245775886454 5.000000000019313
57 869.2845267833304 832.245775886454 1.93564441756917e-11
58 865.624272745486 835.9060299242984 1.93564441756917e-11
59 860.624272745486 837.245775886454 1.93564441756917e-11
60 855.624272745486 835.9060299242983 1.93564441756917e-11
61 851.9640187076416 832.245775886454 1.93564441756917e-11
62 850.624272745486 827.245775886454 1.93564441756917e-11
63 851.9640187076417 822.245775886454 1.93564441756917e-11
64 855.624272745486 818.5855218486096 1.93564441756917e-11
65 860.624272745486 817.245775886454 1.93564441756917e-11
66 865.624272745486 818.5855218486096 1.93564441756917e-11
67 869.2845267833304 822.245775886454 1.93564441756917e-11
68 850.9650144825928 846.7156846663854 67.58819045102716
69 869.683941497382 869.7468388967312 60.76651418972695
70 869.5748629037437 869.7475899431921 69.45947707910931
71 850.9650144825964 887.7758671065206 62.41180954899404
72 858.0360822944676 846.7156846663888 55.34074173712735
73 858.029132701998 887.8634935374813 74.65739344518242
74 869.6867727454372 859.7457758864521 60.77257835663955
75 869.4977613431371 859.7381541466956 69.61098689084731
76 869.6867727454813 879.7457758864532 60.77257835673507
77 863.2124631965183 846.7156846663821 74.65925826290861
78 869.410142759442 879.742156255352 69.77582329008057
79 862.8395373549109 887.8135233256631 55.24845639348016
80 869.6867727454883 849.7457758864515 60.77257835674845
81 867.1792891816485 887.9124423303789 72.55193746809022
82 869.6808444666702 849.7878028552309 69.24010715185889
83 869.6826516509825 864.7479875191233 60.76375501129582
84 867.0263104778036 867.2489295807151 57.3179486545776
85 867.0433304944901 872.2745546704651 57.33216473738028
86 863.129324448273 869.7677104843197 55.31884738442793
87 863.1425049749721 864.6937725062041 55.3222674950166
88 858.727792299679 867.2315030443376 55.18147862871977
89 858.726610923334 872.323809343437 55.18170688926217
90 854.6807616495483 869.7777247292862 56.95794330708014
91 854.6834654840729 864.6719839025119 56.95594573101279
92 854.6813674959748 874.885080475867 56.95749558936988
93 851.7901302424398 872.3355732469169 60.31407146494254
94 858.739837612034 877.4363975544674 55.17915969850708
95 851.7921713733224 877.4530512140526 60.31022544767654
96 850.6326304651437 874.8994820953098 64.59124023970931
97 850.6324474871841 869.7846825768938 64.5957376996147
98 851.4373691339719 872.3421399995689 68.94978506160437
99 851.4368765036804 867.2277852693242 68.94863904354158
100 854.0373157810777 869.7844660203352 72.52409449364526
101 854.0387093376393 864.6685367876721 72.52531425267406
102 851.4352644760922 862.1106298758853 68.94488618658808
103 854.0479312201404 859.5524028591883 72.53337455210369
104 854.0435838469051 874.887466181065 72.52957725376172
105 857.9252779222879 872.3354381617454 74.62888503123357
106 857.9268097074162 862.1210553606115 74.62931426211699
107 857.9556316637436 857.0053664202179 74.63734168623273
108 857.9299436442484 877.4388557266534 74.63019162294233
109 854.0420060583762 879.994980217351 72.52819800882241
110 851.4360392768252 856.9839399252529 68.94669047753951
111 862.3324846418379 874.8882861696754 74.85302045656798
112 862.3241368186311 869.8012791291194 74.85446407133418
113 850.633095413964 859.5465975343064 64.5800291319259
114 862.3449487275499 879.9834182931512 74.8508514436638
115 850.631714499709 854.4933279453692 64.61428027701078
116 851.7961075685976 856.9808494417086 60.30282003651534
117 851.9283022835026 851.3774193296674 60.06237934587043
118 854.738067976248 854.410749171464 56.91590491061213
119 850.6305206066768 879.9448498870728 64.64656232797559
120 862.3624969869168 859.5752296450071 74.84777012764253
121 862.311058052746 854.5694486260624 74.85671118211334
122 857.9629121656168 851.8914454901995 74.63935474314957
123 851.9134937994606 883.0579584587995 60.0885511146637
124 866.5660057204168 872.2943998612867 73.04337051583151
125 866.7082140032924 857.0082178632588 72.93635046932089
126 866.5732659235774 867.3018978413076 73.03800224977273
127 866.087688306529 851.4525396814888 73.37562477715528
128 851.8505771678493 851.4174847132144 69.79815234346609
129 866.556459230196 862.1095281152615 73.05041387202891
130 862.4262889984726 864.7202061798959 74.83629693656904
131 866.4921711079874 877.398465336048 73.0973927166516
132 866.7509951340865 882.5433118919792 72.90337097530811
133 858.0342709572519 846.9267643149038 74.65877273453033
134 857.9740954591051 867.2182032859565 74.64243539522639
135 869.5950544528712 864.7498753547966 69.41871876890157
136 869.5683609137131 874.7492999502374 69.47250341969429
137 851.4386265742153 877.4424287086687 68.95270849119277
138 851.7904084225956 867.2208688566517 60.31354706365719
139 854.6999071116445 859.5328058166231 56.94382895934886
140 858.7899753310494 856.990356320931 55.16967177582532
141 858.8237549642862 851.8578842876821 55.16342866039206
142 863.2356127915244 854.460956936127 55.34697440366011
143 863.2570738991203 849.3115706561267 55.35280568843666
144 863.16173396163 859.5747867972245 55.32729145605015
145 863.1445879865149 874.8676233757669 55.32280975254331
146 863.2634776088886 879.8333287186853 55.35455559921542
147 859.4886139679834 882.8472553013593 55.06469531716843
148 857.789393928947 887.8056342493527 55.41024181247715
149 855.0326002809157 879.9911760674921 56.70945122150335
150 851.7933447575423 862.1064810907566 60.30801631806543
151 854.2918636900512 854.542984862907 72.73954750324083
152 869.688622264914 874.7383739769335 60.7765455146872
153 850.6327973154636 864.671944089432 64.58718196356207
154 869.4716667749503 854.6350923074461 69.66086031625194
155 869.6886222649136 884.7383739769341 60.77654551468709
156 869.6886222649144 854.7383739769326 60.77654551468715
157 858.758772409283 862.139269600247 55.17554538433604
158 867.0378008819328 862.2339003053346 57.3275390621567
159 862.6380836752329 885.0656922272112 74.79512968467569
160 858.0135033360858 882.5848667156702 74.65317994711104
161 853.6548686052955 885.1520443596654 72.17129039510712
162 851.3633425252848 882.5021272337494 68.77295261786924
163 867.0351360572807 877.2430334702077 57.32531228015075
164 853.5717864406103 846.7233762793718 72.08960061779115
165 853.4549577326004 887.8167743959735 58.02856383191184
166 853.5383095961539 846.6817775612739 57.94385896923779
167 850.9665767703683 846.7124309849662 62.40598603472213
168 850.9650144825968 887.7758671065206 67.58819045104559
169 867.0438571147681 857.2205088337581 57.33260562346008
170 867.0941250168778 882.2186691089422 57.37497465013475
171 867.5108063196167 846.5759230328574 72.25090720756228
172 867.1100736500466 852.195341906805 57.38853584215677
173 866.9955710907909 887.8301022667627 57.29243505412818
174 869.612162953763 884.5278595256503 69.38381450384813
175 867.622840245354 846.2844712079315 57.85716772214667
176 850.6242727454872 884.3470377595586 65.00000000001984
177 850.6242740705409 850.1116510556136 64.9948520823562
178 855.1693160035754 884.1312801893968 56.61886362457045
179 855.036470224238 850.38600316485 56.70684239971335
180 863.2124631965122 889.1075291003215 74.65925826291
181 861.9651554933611 850.584364996318 74.90969391337789
182 853.5532049336216 889.1512530830499 72.07106781188473
183 869.9130229574845 888.523938111069 68.70393297715557
184 863.2124631965089 845.2747136804551 55.34074173712744
185 854.6078259144798 850.488249392247 72.98763842008135
186 863.5840392038323 883.7297146207427 55.44804823548155
187 869.9468493942244 845.8739015091051 68.61795033528324
188 869.9468493942251 845.8739015090993 61.38204966475698
189 869.8223381929124 888.5485338478759 61.07627829417919
190 856.7375213995389 892.245775886454 60.80384757731266
191 864.5131616343759 892.245775886454 68.33333333335264
192 864.5676484184611 892.245775886454 61.24537208379837
193 856.6721372586367 892.245775886454 69.30940107677779
194 860.624272745487 892.245775886454 59.22649730812304
195 860.1725284561456 892.245775886454 63.06482760389064
196 860.624272745487 892.245775886454 70.77350269191555
197 855.49026418801 892.245775886454 65.04161784458715
198 863.3683259924225 892.245775886454 64.64195525826793
199 866.9404103929015 892.245775886454 64.87011011257948
200 860.297352040976 892.245775886454 67.1132486540712
201 867.4640083530348 820.4060402789074 54.48285676578664
202 853.7845371399997 820.4060402770675 54.48285676643188
203 863.1097222403783 837.763251053841 74.27582379457789
204 851.1519951802305 837.5939271801223 67.60126885983057
205 870.4506075207794 837.7924300273543 62.36704153240177
206 850.7979379701941 829.8787343540513 54.45334585911711
207 870.5723950385917 828.8969016476833 54.16220576552984
208 852.9871933375836 837.9105890258711 57.36292059209497
209 850.9114155003703 837.9439580446007 61.86507293915521
210 850.7762049350968 833.4665430107377 64.24909602357181
211 852.881625030486 833.0872142020573 69.26215708556371
212 852.4968842509223 828.880168171834 65.97167906141208
213 855.9493940189033 829.0149994538499 69.83158867278777
214 855.9387986008065 825.0492290525845 66.50323042298641
215 860.2354686572961 826.1920806941113 69.15465644077726
216 860.4123217959603 822.6483900661037 65.51870334229839
217 864.6989136721897 825.0076757046874 66.88820808008632
218 864.469794863256 828.8907911476924 70.21848943506934
219 868.2328226763798 828.7607664206121 66.73143952455136
220 868.1956470339842 825.1018844160399 63.02835233821442
221 852.6260086807517 825.4002337995213 62.54292231658568
222 867.9744557756553 833.2726849508507 69.84622453086797
223 870.3373034117049 829.7084192881323 62.0343380950411
224 856.6388684202127 833.4008607918267 72.49509409825986
225 870.1561840988919 826.3849915683693 58.56088265431774
226 851.0846655908761 824.6896458532638 53.96959291758326
227 869.3901533098687 833.4328095610607 55.11062746692546
228 870.1211970674793 838.1347674093216 67.6596508886843
229 867.4426647898002 837.7268900907096 71.85268464921327
230 870.2698014446864 833.4621937703229 65.29638402169323
231 857.9705122594569 837.9056717532072 74.25622697388187
232 867.7048941196371 822.2764128842947 59.37733341515318
233 853.7736314204318 837.5703105277266 71.7888403931544
234 868.6933260343294 837.7286188308656 57.89185881416282
235 870.421928105359 833.753410524296 59.84078633623743
236 865.605854534832 837.9416043026155 54.64026921749957
237 863.949071339439 833.0457136881095 72.63266834858541
238 864.7445179660675 821.7111432151331 62.63741538039299
239 860.6575699615692 819.9542924372726 61.31755246812498
240 863.1909188948447 817.9296592758304 54.13387949388003
241 858.1331654905109 817.9544207447543 54.38941377045183
242 850.9577194283338 829.6077999124007 62.1927685549996
243 856.776918464682 819.6199261288068 58.67045884160105
244 852.7782430011137 822.8972506972399 58.66452238245815
245 860.2363836180872 830.4560752430756 72.03694009717988
246 850.7352353549737 832.4693827105071 59.33068921635024
247 852.4444095171787 834.1233796523402 54.42099720965989
248 855.6646577815164 837.6209997236458 54.30236107375323
249 856.3153921100626 821.8752181744146 62.73560133278782
250 870.0977255773574 824.5006262547098 54.0530868713812
251 850.9594806595048 827.0822309035215 58.87029677949703
252 864.9512655466323 819.6001308278156 57.99458489268499
253 863.1186924812288 837.4706442437224 52.33646397771692
254 857.966036053427 839.6067480631199 54.66506263155276
255 860.3258041312855 834.5958316271814 73.79612603498875
256 860.7777768255828 818.3658192987217 57.3951850909303
257 870.6010546854237 830.3516289319125 57.97256195149933
258 863.430675789846 839.633640426372 54.7283132777972
259 857.7829513292205 837.4870787626527 52.57801380946346
260 850.9650144825966 824.6575854354279 45.53009122008617
261 869.6126046467534 822.8628670769227 22.49734035312744
262 869.6828563329174 831.481583175452 22.50130179306064
263 850.9650144825954 829.8339663374792 4.469908779952772
264 858.0360822944618 836.9050341493447 45.53009122008609
265 858.0360822944608 817.5865176235633 4.469908779952778
266 869.6923447297507 831.4612320288194 32.49921977771127
267 869.4083250171388 822.4666100922088 32.52373569164122
268 869.6866766855046 831.4734034514057 12.50003074366148
269 863.1678863971189 817.5746834150094 45.62183691724494
270 869.6867727454807 823.0183542431704 12.50000000001935
271 862.8280529982871 836.9999212922476 4.437992304189147
272 869.6867727454834 831.4731975297331 42.50000000001942
273 866.9457383188674 819.4972874529235 4.281854314298079
274 869.6713729530625 822.9854968070877 42.44392055062225
275 869.6816236337477 831.4842183936626 17.50273760266881
276 867.025505253618 834.9284982149545 20.00000000047994
277 867.0331176435316 834.9221491885285 25.02870815949209
278 863.1327105347312 836.9260517016097 22.52711538967862
279 863.1422317979764 836.9235794704283 27.59443368110172
280 858.7332241131021 837.0653448724104 25.06911847868374
281 858.7248610706179 837.0637306271 19.97446752814737
282 854.6805244951878 835.2876573041989 22.5273577307041
283 854.6912617881741 835.295582156198 27.63492724956553
284 854.6765638330763 835.2847284732801 17.41714255049156
285 851.7885876819688 831.9287951537997 19.97419047403439
286 858.7346308433525 837.0656156754577 14.86289424780104
287 851.7890876275331 831.9297383042685 14.85873354262819
288 850.632426275512 827.6495135741437 17.41541632709883
289 850.6325156766467 827.6517200664707 22.53164130353073
290 851.4385275116146 823.2932976134713 19.97814986111254
291 851.4334144844656 823.3052017625702 25.09428059095087
292 854.0447101882575 819.7152143831191 22.5437200192033
293 854.0449147895422 819.7150356248628 27.65921761707835
294 851.4335592740038 823.304864077608 30.20846601450313
295 854.056314498008 819.7050912716876 32.77615913315601
296 854.508258451075 819.3341155581439 17.51589069225555
297 858.2377539819896 817.5347240283144 25.06562644526868
298 851.4318685078167 823.3088094995941 35.33728494081934
299 854.0452614488095 819.714732774229 37.90969711251913
300 857.9643090271029 817.6060355882468 35.3444961900653
301 850.6334296697869 827.6736247344614 32.77008169539334
302 850.6324289509508 827.6495797814232 37.81885451458361
303 851.8029048803007 831.9557088994662 35.32983414384618
304 851.9355912422426 832.196211598104 40.92140717659201
305 854.7555637252577 835.3425810857831 37.89522457272516
306 850.6307999372049 827.6070254264406 12.36707919048893
307 857.9561985140888 817.6082772537304 40.46971331790142
308 862.3122791479892 817.3892737490266 37.79146035573626
309 862.4083407334506 817.4062077346334 32.71546685421571
310 853.5985852981883 820.129617098676 43.05395377378228
311 851.9074991614906 832.1465776867062 9.235177714958537
312 866.7098948472577 819.3107142210076 35.35595961727454
313 866.0550984099825 818.848982891396 40.87707955877827
314 866.4443499845381 819.1139433173786 30.25859058734556
315 869.2958626908651 822.2654618582816 27.51040455992831
316 866.7386550267814 819.3328542188152 24.29320289720244
317 867.1339350775719 819.6547090100375 19.402230736575
318 861.7942452647577 817.3144535019903 21.20809426658942
319 863.9674078916634 817.8211566689791 16.2091865577729
320 858.7952401892258 817.4144667209289 17.7577310237095
321 860.1299428713123 817.2580014609126 12.89402536134098
322 864.0956564224081 817.8676366591019 11.05774016400736
323 857.9686483738981 817.6048392516127 30.15735789010295
324 862.7028005950468 817.4641746893799 27.01948794062965
325 851.5116516202752 823.127507290508 14.91210061389448
326 851.4042175336341 823.3740086038816 9.747444581379737
327 854.0683819179238 819.6945974713268 12.28799743468767
328 851.792683806064 831.936515359615 25.08300418196015
329 854.7024294597934 835.3038012090557 32.77324405844049
330 858.8044450892323 837.0787930887949 35.31003636833919
331 858.8484571181039 837.0868367468258 40.44275532221359
332 863.2662042037624 836.8904738169116 37.82822846468706
333 863.2846047477179 836.8854145538473 42.98360663140924
334 863.1926621540546 836.9103180818172 32.7125148419801
335 851.7987617661031 831.9479409146916 30.20179125344211
336 863.1377988589791 836.9247317431975 17.43422788887698
337 863.2344649282045 836.899111929982 12.4596881961169
338 859.4642790803603 837.178268760696 9.446447600551867
339 855.0274881604037 835.532874432277 12.30006946197819
340 851.3681210780812 823.4611152266348 40.43476116045019
341 850.6329740459295 827.6628493766551 27.64242087248078
342 869.6939708288769 831.4577322817829 37.49237085139249
343 869.686919708426 831.4728824648508 27.49619417701007
344 869.4452871920843 822.5351810054522 37.62187760075768
345 869.686772745212 831.4731975303131 7.500000000019341
346 858.7568876297594 837.069872426572 30.16453361167747
347 858.0360822944631 817.5865176235629 45.60727757278946
348 853.5538276095294 820.1740854535076 7.062124573578314
349 867.0257020205727 834.9283342647592 15.00162164594384
350 867.0643088271903 834.8960004103716 10.02947964722737
351 867.0574637185435 834.9017574632461 30.008351565304
352 863.0457363861531 817.5433785622394 4.576800809722607
353 857.7739259724365 836.8309479388151 4.443334441201041
354 853.542863320489 834.3064869381506 45.56484679472712
355 850.9689771839435 829.8487103111441 45.52790528014942
356 853.4514979773344 834.2136523294864 4.432391170261368
357 850.9650144825954 824.6575854354288 4.469908779952774
358 867.0711883588988 834.8902038620154 35.01697746701452
359 867.5108063193808 819.9948686786879 45.66985285378952
360 866.9920105667768 834.956282681685 4.417004778203263
361 867.1197236434506 834.8490066229333 40.09549264078868
362 869.6543912315415 822.9496194498466 7.647893775991623
363 867.6406070352754 834.371156797952 45.9685339424304
364 869.688997286853 823.0231263640397 17.51316704517691
365 860.4131548479427 817.2480046731616 8.406841817837668
366 867.2789468136923 819.7815067965868 14.78171512643928
367 850.6242727454862 827.245775886454 7.937236686586591
368 850.6242746802619 827.2519964567405 42.17334857125987
369 855.1580511668303 835.6195696296171 8.133006996555565
370 855.2646563097993 835.6881992152327 41.99941466957353
371 856.8395369435705 817.9896549435483 9.620807316612414
372 853.5532049336206 820.1747080745886 3.113810527872371
373 856.7485972705859 818.027362811892 14.67077155645033
374 869.9130229574778 823.5418429093033 3.721837775397023
375 867.4933434723866 819.9783232826292 8.567635034374522
376 863.5653258752093 836.8035060818585 8.554925732537571
377 861.8704985894543 817.3237337001988 41.7641287028364
378 869.9468493941883 823.6278255510997 46.37187437728534
379 863.2124631965124 836.9050341493446 46.99910799903008
380 869.9468493942215 830.8637262217225 46.37187437736868
381 869.8234225547392 831.1669546361309 3.69395109213993
382 857.2453894424566 817.8339138164646 21.23597063795571
383 853.5532049336224 820.1747080745877 47.00373685179098
384 856.7516774812943 831.3117468236197 1.93564441756917e-11
385 864.0109716658235 823.2789515859167 1.93564441756917e-11
386 864.5549749850251 831.2147803454377 1.93564441756917e-11
387 856.8177165017335 823.3759180640986 1.93564441756917e-11
388 858.7941457265638 834.0759029053762 1.93564441756917e-11
389 860.6493374845372 830.8921060661194 1.93564441756917e-11
390 858.7715159720343 827.2886166195094 1.93564441756917e-11
391 854.7092092360249 827.4909664148373 1.93564441756917e-11
392 860.2963276218186 824.3872454243527 1.93564441756917e-11
393 862.4890752467293 827.3113862276989 1.93564441756917e-11
394 866.7080580349541 827.2570743030692 1.93564441756917e-11
395 860.4996390043057 820.9098224430069 1.93564441756917e-11
396 862.4543997644082 834.0759029053762 1.93564441756917e-11
397 860.0615330864804 831.4433587111799 58.43527544236757
398 861.4999015228119 838.4480821306377 62.09224504406602
399 862.095526759464 825.2770295593575 9.548153664621141
400 860.2119874329585 826.9852175845833 21.45002507395893
401 858.1240708438293 864.9600958197561 67.92890407226386
402 863.3823494133361 830.0596612822271 48.76311069531476
403 860.562172087392 875.8260625408954 64.54335190610372
404 857.4327527459664 857.0423648006364 67.66003818535093
405 860.8375666864351 827.5474594805515 36.98405600004402
406 860.5209643578785 886.9381060860065 65.2088381565887
407 863.7644669883356 846.8765478788696 67.01547863621195
408 863.8174053452315 828.0756196743309 29.24663723451065
409 862.0400397183714 830.6928021024843 14.80113375726971
410 860.0488010553241 833.1238738815548 53.06614542176595
411 865.5046625588147 827.0629480880157 43.19255465269466
412 859.8865094858696 830.7710593187267 66.17630250103869
413 859.312698867279 824.1982991267806 56.07591673123471
414 861.4053767100714 822.813305454855 14.79921113172888
415 856.4154260833434 825.4145436647965 42.38130342250452
416 856.0774909661326 825.955360615885 27.91234268230942
417 861.5917662851144 837.0918806730514 56.81983394451797
418 864.0376777659502 871.0835134479935 62.26516224141598
419 855.5657691187461 870.5912110925789 64.67705086017875
420 864.3342920822487 859.4726625010252 62.26699333954052
421 858.423152656174 831.4126036749942 4.981370986225543
422 861.7071077125186 870.5508216623165 70.0305330415305
423 856.6676044381244 881.3577393570841 67.15200824909112
424 857.6330460877714 850.1034092780213 61.25852930493566
425 857.3788213902376 830.7490964725037 32.18499287875147
426 855.6556810844675 843.6270645690749 64.46209192159527
427 860.6756163393868 822.2493749386534 32.34158831904496
428 865.6188472455402 832.5968383430725 63.11163344863412
429 865.9996069836977 827.8952833547999 54.50614878977836
430 864.6758926401525 829.2518046942389 5.111384174165619
431 859.8347390833293 881.2285886847152 60.31890671845601
432 865.0994900105642 881.5327600935495 64.44463207977681
433 858.8132473232854 831.7788322350109 26.27699117243253
434 855.7020630768924 827.3972793100745 16.7977291228548
435 857.0803240758714 861.9991491533445 61.52222514637965
436 857.9550532737663 850.5169568367933 69.141316474357
437 859.7628627897938 832.1748555006545 43.63484349919156
438 865.644330872303 826.5891888852972 18.05802474081814
439 862.0531461488216 822.9245791359965 25.96081818094091
440 863.8664616713562 859.7472731949608 69.17376258985988
441 855.8752967243347 835.6474172725391 61.05458609098831
442 859.631389598467 842.1487989841437 69.77792943977926
443 866.2698416404226 826.3227644250313 12.497070394151
444 864.8566419099443 851.3128265830969 62.53995200709519
445 856.5584019250724 886.876643350343 62.08243792526859
446 856.8647640793337 825.3313995567481 5.180778493390441
447 857.0100673155051 830.2240953694886 11.64505195374655
448 865.957218136861 887.1209452582656 63.84254826134763
449 856.2561128759695 827.984123473645 61.00538781937603
450 858.7494903995084 874.0997093463861 59.79641241947684
451 861.6169111803362 843.9489164306435 60.05775594399554
452 865.9321468759505 841.5603621576754 66.41012363465619
453 862.1838965531549 880.9037767942954 70.14654436802806
454 855.2133230630649 829.871238901593 54.81133076708101
455 861.4117090189378 822.168937832461 38.71738791819607
456 856.6823508480362 887.7310554299783 68.8078510731863
457 865.3184994015593 829.8211251009582 23.42137628918861
458 862.9369561446892 832.3387548701061 33.40842865160959
459 861.7538066007571 822.3249739254684 4.928327715861512
460 860.020981198715 836.2097751569703 68.73553943530079
461 866.0010723316511 826.1010584942586 34.49167972709622
462 860.8050609418046 832.4908406402702 19.98203484736454
463 858.097349545037 822.0662452394396 19.84296654581726
464 864.2361443149723 823.2261110055637 51.10826189862043
465 858.1375733786251 875.1777689548627 69.43335226117279
466 858.477437231619 867.56008528233 60.14568126492662
467 863.103220143433 832.3162631295933 9.5665748358568
468 863.9060060283269 825.9344352367851 59.73953117438029
469 863.4156455463343 887.4684183632364 69.58278880924054
470 857.4649005804353 831.9493045953521 37.83025737573094
471 855.557906728157 825.1611215528774 35.37325377323654
472 861.9581832201528 887.0036786984639 60.20766152255402
473 865.2749330940454 866.4978973067653 67.57296534065796
474 857.7861209715504 856.3479851984923 60.56942246813026
475 861.7853194921945 822.0693149816742 45.66117391010359
476 856.301078761206 830.4815921913065 47.77541537414859
477 864.4140790703246 877.1631454017688 60.59833317563488
478 865.7554059654755 874.8450905002446 67.04615535512096
479 864.5308193071143 865.649492818185 61.62610159219795
480 864.3754788964771 852.6109588360864 68.99017746172623
481 864.2626866354825 831.8349167711601 39.73103152104976
482 865.2276560556828 833.1272663926488 55.97414857986654
483 854.7148826199804 827.6203705407302 22.42279790802626
484 856.9750485390741 824.4122212536777 50.29490633969568
485 863.5338421303944 822.0446865330148 20.41806398208079
486 856.8481544109861 823.1867564915477 11.8869567947368
487 855.2125061639385 876.9194433360007 63.47577588493316
488 855.8189206930981 833.2536459239437 2.309214621588779
489 862.4432010248426 833.6745505356276 2.352472246580767
490 854.5432346066398 889.7710535359662 60.58946943469105
491 857.2919417982358 821.6621453483472 2.386586069188416
492 866.1893263231882 889.7798081746495 60.06924479506663
493 863.8397744470211 820.4331930153741 2.332721026869062
494 866.5569923461138 890.2220253812562 69.97759192832417
495 867.8966802008352 828.9687220771908 2.40065295427299
496 860.3394872097934 889.9731871296844 72.44823841604806
497 859.0911619664292 835.0683998193551 2.487325568775385
498 854.3678400975947 829.3300113607256 2.428535202287262
499 866.2909741886833 832.2437683306864 2.310143115782122
500 858.518026006836 889.7193724825443 58.5308782589809
501 853.4825438444714 889.0864420558991 64.87640362685775
502 866.613815735348 824.7845399440879 3.223033985246197
503 867.3111973302258 889.9882370376155 66.59883957749994
504 860.1143853367256 819.4336290681488 2.479129115871057
505 853.7030848377406 824.6769777419619 2.34335623801738
506 868.2051701005068 889.9852346689813 63.17706205112432
507 863.0410217117924 889.9238089512513 57.82462340846298
$EndNodes
$Elements
2423
1 2 2 3 1 1 187 7
2 2 2 3 1 15 187 1
3 2 2 3 1 1 188 15
4 2 2 3 1 36 188 1
5 2 2 3 1 14 72 2
6 2 2 3 1 2 184 35
7 2 2 3 1 72 184 2
8 2 2 3 1 3 183 23
9 2 2 3 1 23 189 3
10 2 2 3 1 24 183 3
11 2 2 3 1 3 189 34
12 2 2 3 1 7 171 8
13 2 2 3 1 7 187 171
14 2 2 3 1 8 77 9
15 2 2 3 1 8 171 77
16 2 2 3 1 9 133 10
17 2 2 3 1 77 133 9
18 2 2 3 1 10 164 11
19 2 2 3 1 133 164 10
20 2 2 3 1 11 68 12
21 2 2 3 1 11 164 68
22 2 2 3 1 12 167 13
23 2 2 3 1 68 167 12
24 2 2 3 1 13 166 14
25 2 2 3 1 13 167 166
26 2 2 3 1 14 166 72
27 2 2 3 1 15 80 16
28 2 2 3 1 16 82 15
29 2 2 3 1 15 188 80
30 2 2 3 1 82 187 15
31 2 2 3 1 17 154 16
32 2 2 3 1 16 156 17
33 2 2 3 1 80 156 16
34 2 2 3 1 16 154 82
35 2 2 3 1 17 74 18
36 2 2 3 1 18 75 17
37 2 2 3 1 17 156 74
38 2 2 3 1 75 154 17
39 2 2 3 1 18 83 19
40 2 2 3 1 19 135 18
41 2 2 3 1 74 83 18
42 2 2 3 1 18 135 75
43 2 2 3 1 19 69 20
44 2 2 3 1 20 70 19
45 2 2 3 1 19 83 69
46 2 2 3 1 70 135 19
47 2 2 3 1 21 136 20
48 2 2 3 1 20 152 21
49 2 2 3 1 69 152 20
50 2 2 3 1 20 136 70
51 2 2 3 1 21 76 22
52 2 2 3 1 22 78 21
53 2 2 3 1 21 152 76
54 2 2 3 1 78 136 21
55 2 2 3 1 22 155 23
56 2 2 3 1 23 174 22
57 2 2 3 1 76 155 22
58 2 2 3 1 22 174 78
59 2 2 3 1 155 189 23
60 2 2 3 1 23 183 174
61 2 2 3 1 25 81 24
62 2 2 3 1 81 183 24
63 2 2 3 1 26 180 25
64 2 2 3 1 25 180 81
65 2 2 3 1 27 73 26
66 2 2 3 1 73 180 26
67 2 2 3 1 28 182 27
68 2 2 3 1 27 182 73
69 2 2 3 1 29 168 28
70 2 2 3 1 168 182 28
71 2 2 3 1 30 71 29
72 2 2 3 1 71 168 29
73 2 2 3 1 31 165 30
74 2 2 3 1 30 165 71
75 2 2 3 1 32 148 31
76 2 2 3 1 148 165 31
77 2 2 3 1 33 79 32
78 2 2 3 1 79 148 32
79 2 2 3 1 34 173 33
80 2 2 3 1 33 173 79
81 2 2 3 1 34 189 173
82 2 2 3 1 35 175 36
83 2 2 3 1 35 184 175
84 2 2 3 1 175 188 36
85 2 2 3 1 68 164 128
86 2 2 3 1 128 177 68
87 2 2 3 1 68 177 167
88 2 2 3 1 83 84 69
89 2 2 3 1 84 85 69
90 2 2 3 1 85 152 69
91 2 2 3 1 124 126 70
92 2 2 3 1 70 136 124
93 2 2 3 1 126 135 70
94 2 2 3 1 71 165 123
95 2 2 3 1 123 176 71
96 2 2 3 1 71 176 168
97 2 2 3 1 141 143 72
98 2 2 3 1 72 179 141
99 2 2 3 1 143 184 72
100 2 2 3 1 166 179 72
101 2 2 3 1 73 160 159
102 2 2 3 1 159 180 73
103 2 2 3 1 73 161 160
104 2 2 3 1 73 182 161
105 2 2 3 1 74 158 83
106 2 2 3 1 156 169 74
107 2 2 3 1 74 169 158
108 2 2 3 1 75 129 125
109 2 2 3 1 125 154 75
110 2 2 3 1 75 135 129
111 2 2 3 1 152 163 76
112 2 2 3 1 76 170 155
113 2 2 3 1 163 170 76
114 2 2 3 1 77 171 127
115 2 2 3 1 127 181 77
116 2 2 3 1 77 181 133
117 2 2 3 1 78 132 131
118 2 2 3 1 131 136 78
119 2 2 3 1 78 174 132
120 2 2 3 1 147 148 79
121 2 2 3 1 79 186 147
122 2 2 3 1 173 186 79
123 2 2 3 1 80 172 156
124 2 2 3 1 80 175 172
125 2 2 3 1 80 188 175
126 2 2 3 1 81 159 132
127 2 2 3 1 132 174 81
128 2 2 3 1 81 180 159
129 2 2 3 1 174 183 81
130 2 2 3 1 82 154 127
131 2 2 3 1 127 171 82
132 2 2 3 1 171 187 82
133 2 2 3 1 83 158 84
134 2 2 3 1 84 86 85
135 2 2 3 1 84 87 86
136 2 2 3 1 84 158 87
137 2 2 3 1 86 145 85
138 2 2 3 1 145 163 85
139 2 2 3 1 85 163 152
140 2 2 3 1 87 88 86
141 2 2 3 1 88 89 86
142 2 2 3 1 89 145 86
143 2 2 3 1 87 157 88
144 2 2 3 1 144 157 87
145 2 2 3 1 87 158 144
146 2 2 3 1 88 90 89
147 2 2 3 1 88 91 90
148 2 2 3 1 88 157 91
149 2 2 3 1 90 92 89
150 2 2 3 1 92 94 89
151 2 2 3 1 94 145 89
152 2 2 3 1 91 138 90
153 2 2 3 1 90 93 92
154 2 2 3 1 90 138 93
155 2 2 3 1 91 150 138
156 2 2 3 1 139 150 91
157 2 2 3 1 91 157 139
158 2 2 3 1 93 95 92
159 2 2 3 1 92 149 94
160 2 2 3 1 95 149 92
161 2 2 3 1 93 96 95
162 2 2 3 1 93 97 96
163 2 2 3 1 93 138 97
164 2 2 3 1 94 146 145
165 2 2 3 1 94 147 146
166 2 2 3 1 94 149 147
167 2 2 3 1 96 119 95
168 2 2 3 1 119 123 95
169 2 2 3 1 123 149 95
170 2 2 3 1 97 98 96
171 2 2 3 1 98 137 96
172 2 2 3 1 96 137 119
173 2 2 3 1 97 99 98
174 2 2 3 1 97 153 99
175 2 2 3 1 138 153 97
176 2 2 3 1 99 100 98
177 2 2 3 1 100 104 98
178 2 2 3 1 104 137 98
179 2 2 3 1 99 101 100
180 2 2 3 1 99 102 101
181 2 2 3 1 99 153 102
182 2 2 3 1 101 134 100
183 2 2 3 1 100 105 104
184 2 2 3 1 100 134 105
185 2 2 3 1 102 103 101
186 2 2 3 1 103 106 101
187 2 2 3 1 106 134 101
188 2 2 3 1 102 110 103
189 2 2 3 1 102 113 110
190 2 2 3 1 102 153 113
191 2 2 3 1 103 107 106
192 2 2 3 1 103 151 107
193 2 2 3 1 110 151 103
194 2 2 3 1 105 108 104
195 2 2 3 1 108 109 104
196 2 2 3 1 109 137 104
197 2 2 3 1 105 111 108
198 2 2 3 1 105 112 111
199 2 2 3 1 105 134 112
200 2 2 3 1 107 120 106
201 2 2 3 1 120 130 106
202 2 2 3 1 130 134 106
203 2 2 3 1 107 121 120
204 2 2 3 1 107 122 121
205 2 2 3 1 107 151 122
206 2 2 3 1 108 160 109
207 2 2 3 1 111 114 108
208 2 2 3 1 114 160 108
209 2 2 3 1 109 162 137
210 2 2 3 1 160 161 109
211 2 2 3 1 161 162 109
212 2 2 3 1 113 115 110
213 2 2 3 1 115 128 110
214 2 2 3 1 128 151 110
215 2 2 3 1 112 124 111
216 2 2 3 1 111 131 114
217 2 2 3 1 124 131 111
218 2 2 3 1 112 126 124
219 2 2 3 1 112 130 126
220 2 2 3 1 112 134 130
221 2 2 3 1 113 116 115
222 2 2 3 1 113 150 116
223 2 2 3 1 113 153 150
224 2 2 3 1 131 132 114
225 2 2 3 1 132 159 114
226 2 2 3 1 159 160 114
227 2 2 3 1 116 117 115
228 2 2 3 1 117 177 115
229 2 2 3 1 115 177 128
230 2 2 3 1 116 118 117
231 2 2 3 1 116 139 118
232 2 2 3 1 116 150 139
233 2 2 3 1 118 179 117
234 2 2 3 1 166 167 117
235 2 2 3 1 117 179 166
236 2 2 3 1 167 177 117
237 2 2 3 1 139 140 118
238 2 2 3 1 140 141 118
239 2 2 3 1 141 179 118
240 2 2 3 1 119 176 123
241 2 2 3 1 137 162 119
242 2 2 3 1 162 176 119
243 2 2 3 1 121 125 120
244 2 2 3 1 125 129 120
245 2 2 3 1 129 130 120
246 2 2 3 1 122 181 121
247 2 2 3 1 121 127 125
248 2 2 3 1 121 181 127
249 2 2 3 1 133 181 122
250 2 2 3 1 122 185 133
251 2 2 3 1 151 185 122
252 2 2 3 1 123 178 149
253 2 2 3 1 165 178 123
254 2 2 3 1 124 136 131
255 2 2 3 1 127 154 125
256 2 2 3 1 126 130 129
257 2 2 3 1 129 135 126
258 2 2 3 1 128 185 151
259 2 2 3 1 164 185 128
260 2 2 3 1 133 185 164
261 2 2 3 1 150 153 138
262 2 2 3 1 139 157 140
263 2 2 3 1 140 142 141
264 2 2 3 1 140 144 142
265 2 2 3 1 140 157 144
266 2 2 3 1 142 143 141
267 2 2 3 1 142 172 143
268 2 2 3 1 144 169 142
269 2 2 3 1 169 172 142
270 2 2 3 1 172 175 143
271 2 2 3 1 175 184 143
272 2 2 3 1 158 169 144
273 2 2 3 1 146 163 145
274 2 2 3 1 147 186 146
275 2 2 3 1 146 170 163
276 2 2 3 1 146 186 170
277 2 2 3 1 147 178 148
278 2 2 3 1 149 178 147
279 2 2 3 1 148 178 165
280 2 2 3 1 170 173 155
281 2 2 3 1 173 189 155
282 2 2 3 1 156 172 169
283 2 2 3 1 161 168 162
284 2 2 3 1 161 182 168
285 2 2 3 1 168 176 162
286 2 2 3 1 170 186 173
287 2 2 2 2 24 3 199
288 2 2 2 2 3 34 199
289 2 2 2 2 25 24 191
290 2 2 2 2 191 24 199
291 2 2 2 2 26 25 196
292 2 2 2 2 25 191 196
293 2 2 2 2 27 26 196
294 2 2 2 2 28 27 193
295 2 2 2 2 193 27 196
296 2 2 2 2 29 28 197
297 2 2 2 2 28 193 197
298 2 2 2 2 30 29 197
299 2 2 2 2 31 30 190
300 2 2 2 2 190 30 197
301 2 2 2 2 32 31 194
302 2 2 2 2 31 190 194
303 2 2 2 2 33 32 194
304 2 2 2 2 34 33 192
305 2 2 2 2 192 33 194
306 2 2 2 2 34 192 199
307 2 2 2 2 194 190 195
308 2 2 2 2 195 190 197
309 2 2 2 2 196 191 200
310 2 2 2 2 198 191 199
311 2 2 2 2 191 198 200
312 2 2 2 2 192 194 195
313 2 2 2 2 192 195 198
314 2 2 2 2 192 198 199
315 2 2 2 2 193 196 200
316 2 2 2 2 197 193 200
317 2 2 2 2 195 197 200
318 2 2 2 2 198 195 200
319 2 2 3 3 7 228 1
320 2 2 3 3 1 205 36
321 2 2 3 3 1 228 205
322 2 2 3 3 2 254 14
323 2 2 3 3 35 258 2
324 2 2 3 3 39 254 2
325 2 2 3 3 2 258 39
326 2 2 3 3 37 207 4
327 2 2 3 3 4 250 47
328 2 2 3 3 207 250 4
329 2 2 3 3 5 253 38
330 2 2 3 3 39 253 5
331 2 2 3 3 5 259 39
332 2 2 3 3 40 259 5
333 2 2 3 3 8 229 7
334 2 2 3 3 7 229 228
335 2 2 3 3 9 203 8
336 2 2 3 3 203 229 8
337 2 2 3 3 10 231 9
338 2 2 3 3 9 231 203
339 2 2 3 3 11 233 10
340 2 2 3 3 10 233 231
341 2 2 3 3 12 204 11
342 2 2 3 3 204 233 11
343 2 2 3 3 13 209 12
344 2 2 3 3 12 209 204
345 2 2 3 3 14 208 13
346 2 2 3 3 208 209 13
347 2 2 3 3 14 248 208
348 2 2 3 3 14 254 248
349 2 2 3 3 36 234 35
350 2 2 3 3 234 236 35
351 2 2 3 3 236 258 35
352 2 2 3 3 205 234 36
353 2 2 3 3 38 227 37
354 2 2 3 3 37 227 207
355 2 2 3 3 38 236 227
356 2 2 3 3 38 253 236
357 2 2 3 3 39 258 253
358 2 2 3 3 39 259 254
359 2 2 3 3 41 247 40
360 2 2 3 3 247 248 40
361 2 2 3 3 248 259 40
362 2 2 3 3 42 206 41
363 2 2 3 3 206 247 41
364 2 2 3 3 43 226 42
365 2 2 3 3 42 226 206
366 2 2 3 3 44 202 43
367 2 2 3 3 202 226 43
368 2 2 3 3 45 241 44
369 2 2 3 3 44 241 202
370 2 2 3 3 46 240 45
371 2 2 3 3 240 241 45
372 2 2 3 3 47 201 46
373 2 2 3 3 201 240 46
374 2 2 3 3 47 250 201
375 2 2 3 3 201 250 232
376 2 2 3 3 232 252 201
377 2 2 3 3 201 252 240
378 2 2 3 3 202 244 226
379 2 2 3 3 241 243 202
380 2 2 3 3 243 244 202
381 2 2 3 3 203 237 229
382 2 2 3 3 231 255 203
383 2 2 3 3 203 255 237
384 2 2 3 3 209 210 204
385 2 2 3 3 210 211 204
386 2 2 3 3 211 233 204
387 2 2 3 3 228 230 205
388 2 2 3 3 230 235 205
389 2 2 3 3 205 235 234
390 2 2 3 3 226 251 206
391 2 2 3 3 246 247 206
392 2 2 3 3 206 251 246
393 2 2 3 3 225 250 207
394 2 2 3 3 207 257 225
395 2 2 3 3 227 257 207
396 2 2 3 3 208 246 209
397 2 2 3 3 208 247 246
398 2 2 3 3 208 248 247
399 2 2 3 3 209 246 210
400 2 2 3 3 210 212 211
401 2 2 3 3 210 242 212
402 2 2 3 3 210 246 242
403 2 2 3 3 212 213 211
404 2 2 3 3 213 224 211
405 2 2 3 3 224 233 211
406 2 2 3 3 212 214 213
407 2 2 3 3 212 221 214
408 2 2 3 3 212 242 221
409 2 2 3 3 214 215 213
410 2 2 3 3 215 245 213
411 2 2 3 3 213 245 224
412 2 2 3 3 214 216 215
413 2 2 3 3 214 249 216
414 2 2 3 3 221 249 214
415 2 2 3 3 216 217 215
416 2 2 3 3 217 218 215
417 2 2 3 3 218 245 215
418 2 2 3 3 216 238 217
419 2 2 3 3 216 239 238
420 2 2 3 3 216 249 239
421 2 2 3 3 217 219 218
422 2 2 3 3 217 220 219
423 2 2 3 3 217 238 220
424 2 2 3 3 219 222 218
425 2 2 3 3 222 237 218
426 2 2 3 3 237 245 218
427 2 2 3 3 220 223 219
428 2 2 3 3 219 230 222
429 2 2 3 3 223 230 219
430 2 2 3 3 220 225 223
431 2 2 3 3 220 232 225
432 2 2 3 3 220 238 232
433 2 2 3 3 242 251 221
434 2 2 3 3 244 249 221
435 2 2 3 3 221 251 244
436 2 2 3 3 228 229 222
437 2 2 3 3 222 230 228
438 2 2 3 3 229 237 222
439 2 2 3 3 225 257 223
440 2 2 3 3 223 235 230
441 2 2 3 3 223 257 235
442 2 2 3 3 231 233 224
443 2 2 3 3 224 255 231
444 2 2 3 3 245 255 224
445 2 2 3 3 232 250 225
446 2 2 3 3 244 251 226
447 2 2 3 3 234 235 227
448 2 2 3 3 227 236 234
449 2 2 3 3 235 257 227
450 2 2 3 3 238 252 232
451 2 2 3 3 253 258 236
452 2 2 3 3 237 255 245
453 2 2 3 3 239 252 238
454 2 2 3 3 239 249 243
455 2 2 3 3 243 256 239
456 2 2 3 3 239 256 252
457 2 2 3 3 240 256 241
458 2 2 3 3 252 256 240
459 2 2 3 3 241 256 243
460 2 2 3 3 246 251 242
461 2 2 3 3 243 249 244
462 2 2 3 3 254 259 248
463 2 2 3 4 4 380 37
464 2 2 3 4 47 378 4
465 2 2 3 4 4 378 48
466 2 2 3 4 48 380 4
467 2 2 3 4 38 379 5
468 2 2 3 4 5 264 40
469 2 2 3 4 5 379 264
470 2 2 3 4 56 374 6
471 2 2 3 4 6 381 56
472 2 2 3 4 57 381 6
473 2 2 3 4 6 374 67
474 2 2 3 4 37 363 38
475 2 2 3 4 37 380 363
476 2 2 3 4 363 379 38
477 2 2 3 4 40 354 41
478 2 2 3 4 264 354 40
479 2 2 3 4 41 355 42
480 2 2 3 4 354 355 41
481 2 2 3 4 42 260 43
482 2 2 3 4 42 355 260
483 2 2 3 4 43 383 44
484 2 2 3 4 260 383 43
485 2 2 3 4 44 347 45
486 2 2 3 4 44 383 347
487 2 2 3 4 45 269 46
488 2 2 3 4 45 347 269
489 2 2 3 4 46 359 47
490 2 2 3 4 269 359 46
491 2 2 3 4 359 378 47
492 2 2 3 4 49 272 48
493 2 2 3 4 48 274 49
494 2 2 3 4 272 380 48
495 2 2 3 4 48 378 274
496 2 2 3 4 50 342 49
497 2 2 3 4 49 344 50
498 2 2 3 4 49 342 272
499 2 2 3 4 274 344 49
500 2 2 3 4 51 266 50
501 2 2 3 4 50 267 51
502 2 2 3 4 266 342 50
503 2 2 3 4 50 344 267
504 2 2 3 4 51 315 52
505 2 2 3 4 52 343 51
506 2 2 3 4 51 343 266
507 2 2 3 4 267 315 51
508 2 2 3 4 52 261 53
509 2 2 3 4 53 262 52
510 2 2 3 4 52 315 261
511 2 2 3 4 262 343 52
512 2 2 3 4 54 275 53
513 2 2 3 4 53 364 54
514 2 2 3 4 261 364 53
515 2 2 3 4 53 275 262
516 2 2 3 4 55 268 54
517 2 2 3 4 54 270 55
518 2 2 3 4 268 275 54
519 2 2 3 4 54 364 270
520 2 2 3 4 56 345 55
521 2 2 3 4 55 362 56
522 2 2 3 4 55 345 268
523 2 2 3 4 270 362 55
524 2 2 3 4 56 381 345
525 2 2 3 4 362 374 56
526 2 2 3 4 58 360 57
527 2 2 3 4 360 381 57
528 2 2 3 4 59 271 58
529 2 2 3 4 271 360 58
530 2 2 3 4 60 353 59
531 2 2 3 4 59 353 271
532 2 2 3 4 61 356 60
533 2 2 3 4 60 356 353
534 2 2 3 4 62 263 61
535 2 2 3 4 263 356 61
536 2 2 3 4 63 357 62
537 2 2 3 4 62 357 263
538 2 2 3 4 64 372 63
539 2 2 3 4 63 372 357
540 2 2 3 4 65 265 64
541 2 2 3 4 265 372 64
542 2 2 3 4 66 352 65
543 2 2 3 4 65 352 265
544 2 2 3 4 67 273 66
545 2 2 3 4 273 352 66
546 2 2 3 4 67 374 273
547 2 2 3 4 260 340 310
548 2 2 3 4 310 383 260
549 2 2 3 4 260 368 340
550 2 2 3 4 355 368 260
551 2 2 3 4 315 316 261
552 2 2 3 4 316 317 261
553 2 2 3 4 317 364 261
554 2 2 3 4 275 276 262
555 2 2 3 4 276 277 262
556 2 2 3 4 277 343 262
557 2 2 3 4 311 356 263
558 2 2 3 4 263 367 311
559 2 2 3 4 357 367 263
560 2 2 3 4 264 333 331
561 2 2 3 4 331 370 264
562 2 2 3 4 264 379 333
563 2 2 3 4 264 370 354
564 2 2 3 4 265 371 348
565 2 2 3 4 348 372 265
566 2 2 3 4 352 365 265
567 2 2 3 4 365 371 265
568 2 2 3 4 266 358 342
569 2 2 3 4 343 351 266
570 2 2 3 4 351 358 266
571 2 2 3 4 312 314 267
572 2 2 3 4 267 344 312
573 2 2 3 4 314 315 267
574 2 2 3 4 268 349 275
575 2 2 3 4 345 350 268
576 2 2 3 4 268 350 349
577 2 2 3 4 313 359 269
578 2 2 3 4 269 377 313
579 2 2 3 4 347 377 269
580 2 2 3 4 270 375 362
581 2 2 3 4 364 366 270
582 2 2 3 4 366 375 270
583 2 2 3 4 271 353 338
584 2 2 3 4 338 376 271
585 2 2 3 4 271 376 360
586 2 2 3 4 342 361 272
587 2 2 3 4 361 363 272
588 2 2 3 4 363 380 272
589 2 2 3 4 273 375 352
590 2 2 3 4 273 374 362
591 2 2 3 4 362 375 273
592 2 2 3 4 313 344 274
593 2 2 3 4 274 359 313
594 2 2 3 4 274 378 359
595 2 2 3 4 275 349 276
596 2 2 3 4 276 278 277
597 2 2 3 4 276 336 278
598 2 2 3 4 276 349 336
599 2 2 3 4 278 279 277
600 2 2 3 4 279 351 277
601 2 2 3 4 277 351 343
602 2 2 3 4 278 280 279
603 2 2 3 4 278 281 280
604 2 2 3 4 278 336 281
605 2 2 3 4 280 346 279
606 2 2 3 4 279 346 334
607 2 2 3 4 334 351 279
608 2 2 3 4 281 282 280
609 2 2 3 4 282 283 280
610 2 2 3 4 283 346 280
611 2 2 3 4 281 284 282
612 2 2 3 4 281 286 284
613 2 2 3 4 281 336 286
614 2 2 3 4 282 328 283
615 2 2 3 4 284 285 282
616 2 2 3 4 285 328 282
617 2 2 3 4 328 335 283
618 2 2 3 4 283 335 329
619 2 2 3 4 329 346 283
620 2 2 3 4 284 287 285
621 2 2 3 4 286 339 284
622 2 2 3 4 284 339 287
623 2 2 3 4 287 288 285
624 2 2 3 4 288 289 285
625 2 2 3 4 289 328 285
626 2 2 3 4 336 337 286
627 2 2 3 4 337 338 286
628 2 2 3 4 338 339 286
629 2 2 3 4 287 306 288
630 2 2 3 4 287 311 306
631 2 2 3 4 287 339 311
632 2 2 3 4 288 290 289
633 2 2 3 4 288 325 290
634 2 2 3 4 306 325 288
635 2 2 3 4 290 291 289
636 2 2 3 4 291 341 289
637 2 2 3 4 289 341 328
638 2 2 3 4 290 292 291
639 2 2 3 4 290 296 292
640 2 2 3 4 290 325 296
641 2 2 3 4 292 293 291
642 2 2 3 4 293 294 291
643 2 2 3 4 294 341 291
644 2 2 3 4 292 297 293
645 2 2 3 4 296 382 292
646 2 2 3 4 292 382 297
647 2 2 3 4 293 295 294
648 2 2 3 4 293 323 295
649 2 2 3 4 297 323 293
650 2 2 3 4 295 298 294
651 2 2 3 4 298 301 294
652 2 2 3 4 301 341 294
653 2 2 3 4 295 299 298
654 2 2 3 4 295 300 299
655 2 2 3 4 295 323 300
656 2 2 3 4 296 373 320
657 2 2 3 4 320 382 296
658 2 2 3 4 325 327 296
659 2 2 3 4 327 373 296
660 2 2 3 4 318 324 297
661 2 2 3 4 297 382 318
662 2 2 3 4 297 324 323
663 2 2 3 4 299 340 298
664 2 2 3 4 298 302 301
665 2 2 3 4 298 340 302
666 2 2 3 4 300 307 299
667 2 2 3 4 307 310 299
668 2 2 3 4 310 340 299
669 2 2 3 4 300 308 307
670 2 2 3 4 300 309 308
671 2 2 3 4 300 323 309
672 2 2 3 4 302 303 301
673 2 2 3 4 303 335 301
674 2 2 3 4 335 341 301
675 2 2 3 4 302 304 303
676 2 2 3 4 302 368 304
677 2 2 3 4 340 368 302
678 2 2 3 4 304 305 303
679 2 2 3 4 305 329 303
680 2 2 3 4 329 335 303
681 2 2 3 4 304 370 305
682 2 2 3 4 304 355 354
683 2 2 3 4 354 370 304
684 2 2 3 4 304 368 355
685 2 2 3 4 305 330 329
686 2 2 3 4 305 331 330
687 2 2 3 4 305 370 331
688 2 2 3 4 311 367 306
689 2 2 3 4 306 326 325
690 2 2 3 4 306 367 326
691 2 2 3 4 308 377 307
692 2 2 3 4 307 347 310
693 2 2 3 4 307 377 347
694 2 2 3 4 309 312 308
695 2 2 3 4 312 313 308
696 2 2 3 4 313 377 308
697 2 2 3 4 309 314 312
698 2 2 3 4 309 324 314
699 2 2 3 4 323 324 309
700 2 2 3 4 347 383 310
701 2 2 3 4 339 369 311
702 2 2 3 4 311 369 356
703 2 2 3 4 312 344 313
704 2 2 3 4 314 316 315
705 2 2 3 4 314 324 316
706 2 2 3 4 316 318 317
707 2 2 3 4 316 324 318
708 2 2 3 4 318 319 317
709 2 2 3 4 319 366 317
710 2 2 3 4 317 366 364
711 2 2 3 4 318 320 319
712 2 2 3 4 318 382 320
713 2 2 3 4 320 321 319
714 2 2 3 4 321 322 319
715 2 2 3 4 322 366 319
716 2 2 3 4 320 373 321
717 2 2 3 4 321 365 322
718 2 2 3 4 321 371 365
719 2 2 3 4 321 373 371
720 2 2 3 4 322 365 352
721 2 2 3 4 352 375 322
722 2 2 3 4 322 375 366
723 2 2 3 4 326 327 325
724 2 2 3 4 326 348 327
725 2 2 3 4 326 357 348
726 2 2 3 4 326 367 357
727 2 2 3 4 348 371 327
728 2 2 3 4 371 373 327
729 2 2 3 4 328 341 335
730 2 2 3 4 330 346 329
731 2 2 3 4 331 332 330
732 2 2 3 4 332 334 330
733 2 2 3 4 334 346 330
734 2 2 3 4 331 333 332
735 2 2 3 4 333 361 332
736 2 2 3 4 332 358 334
737 2 2 3 4 332 361 358
738 2 2 3 4 333 363 361
739 2 2 3 4 333 379 363
740 2 2 3 4 334 358 351
741 2 2 3 4 336 349 337
742 2 2 3 4 337 376 338
743 2 2 3 4 349 350 337
744 2 2 3 4 350 376 337
745 2 2 3 4 338 369 339
746 2 2 3 4 353 369 338
747 2 2 3 4 358 361 342
748 2 2 3 4 345 360 350
749 2 2 3 4 345 381 360
750 2 2 3 4 357 372 348
751 2 2 3 4 360 376 350
752 2 2 3 4 356 369 353
753 2 2 1 5 57 6 394
754 2 2 1 5 6 67 394
755 2 2 1 5 58 57 386
756 2 2 1 5 386 57 394
757 2 2 1 5 59 58 396
758 2 2 1 5 58 386 396
759 2 2 1 5 60 59 388
760 2 2 1 5 388 59 396
761 2 2 1 5 61 60 384
762 2 2 1 5 384 60 388
763 2 2 1 5 62 61 391
764 2 2 1 5 61 384 391
765 2 2 1 5 63 62 391
766 2 2 1 5 64 63 387
767 2 2 1 5 387 63 391
768 2 2 1 5 65 64 395
769 2 2 1 5 64 387 395
770 2 2 1 5 66 65 395
771 2 2 1 5 67 66 385
772 2 2 1 5 385 66 395
773 2 2 1 5 67 385 394
774 2 2 1 5 384 388 389
775 2 2 1 5 384 389 390
776 2 2 1 5 384 390 391
777 2 2 1 5 385 392 393
778 2 2 1 5 392 385 395
779 2 2 1 5 385 393 394
780 2 2 1 5 389 386 393
781 2 2 1 5 386 389 396
782 2 2 1 5 393 386 394
783 2 2 1 5 390 387 391
784 2 2 1 5 387 390 392
785 2 2 1 5 387 392 395
786 2 2 1 5 389 388 396
787 2 2 1 5 390 389 393
788 2 2 1 5 392 390 393
789 4 2 100 1 13 14 426 441
790 4 2 100 1 420 142 444 474
791 4 2 100 1 4 402 380 411
792 4 2 100 1 398 254 451 417
793 4 2 100 1 48 378 4 411
794 4 2 100 1 474 444 420 404
795 4 2 100 1 48 4 380 411
796 4 2 100 1 420 142 474 144
797 4 2 100 1 402 5 476 410
798 4 2 100 1 460 428 412 398
799 4 2 100 1 196 496 456 469
800 4 2 100 1 153 419 401 466
801 4 2 100 1 194 500 32 507
802 4 2 100 1 500 507 194 472
803 4 2 100 1 177 426 424 436
804 4 2 100 1 107 151 404 436
805 4 2 100 1 397 248 454 441
806 4 2 100 1 460 428 398 452
807 4 2 100 1 363 411 402 437
808 4 2 100 1 363 402 379 437
809 4 2 100 1 192 507 492 472
810 4 2 100 1 37 380 4 402
811 4 2 100 1 192 507 472 194
812 4 2 100 1 397 449 413 468
813 4 2 100 1 383 475 415 484
814 4 2 100 1 102 435 401 404
815 4 2 100 1 401 435 153 466
816 4 2 100 1 130 440 401 473
817 4 2 100 1 194 32 33 507
818 4 2 100 1 115 424 404 436
819 4 2 100 1 464 411 475 402
820 4 2 100 1 464 411 402 4
821 4 2 100 1 192 506 492 34
822 4 2 100 1 433 282 462 483
823 4 2 100 1 216 449 412 468
824 4 2 100 1 413 449 249 468
825 4 2 100 1 128 404 151 436
826 4 2 100 1 398 426 14 441
827 4 2 100 1 464 411 4 378
828 4 2 100 1 506 3 34 199
829 4 2 100 1 503 506 199 3
830 4 2 100 1 205 36 398 452
831 4 2 100 1 398 254 417 441
832 4 2 100 1 365 414 399 486
833 4 2 100 1 460 428 452 222
834 4 2 100 1 402 5 410 38
835 4 2 100 1 177 424 115 436
836 4 2 100 1 397 248 441 417
837 4 2 100 1 380 402 363 411
838 4 2 100 1 5 437 402 476
839 4 2 100 1 397 248 417 410
840 4 2 100 1 460 222 452 229
841 4 2 100 1 404 424 115 474
842 4 2 100 1 383 44 475 484
843 4 2 100 1 121 404 440 480
844 4 2 100 1 121 404 480 436
845 4 2 100 1 398 35 451 36
846 4 2 100 1 192 506 34 199
847 4 2 100 1 494 191 24 503
848 4 2 100 1 398 35 36 234
849 4 2 100 1 380 37 363 402
850 4 2 100 1 441 426 460 398
851 4 2 100 1 4 37 402 429
852 4 2 100 1 177 68 426 436
853 4 2 100 1 415 475 402 484
854 4 2 100 1 45 475 44 484
855 4 2 100 1 321 414 365 486
856 4 2 100 1 205 398 36 234
857 4 2 100 1 228 205 428 452
858 4 2 100 1 480 420 17 444
859 4 2 100 1 113 404 115 474
860 4 2 100 1 217 216 412 468
861 4 2 100 1 128 404 436 115
862 4 2 100 1 4 429 402 464
863 4 2 100 1 480 420 444 404
864 4 2 100 1 398 417 234 428
865 4 2 100 1 464 475 45 484
866 4 2 100 1 282 285 284 462
867 4 2 100 1 503 494 191 469
868 4 2 100 1 36 451 398 452
869 4 2 100 1 451 444 143 424
870 4 2 100 1 106 130 440 401
871 4 2 100 1 489 386 430 389
872 4 2 100 1 285 434 284 462
873 4 2 100 1 13 208 14 441
874 4 2 100 1 420 142 144 169
875 4 2 100 1 489 389 430 421
876 4 2 100 1 464 411 378 475
877 4 2 100 1 420 142 169 444
878 4 2 100 1 249 449 216 468
879 4 2 100 1 45 44 241 484
880 4 2 100 1 106 440 404 401
881 4 2 100 1 138 419 153 466
882 4 2 100 1 503 506 448 199
883 4 2 100 1 205 398 234 428
884 4 2 100 1 412 449 397 468
885 4 2 100 1 451 444 424 407
886 4 2 100 1 441 460 426 204
887 4 2 100 1 209 426 204 441
888 4 2 100 1 167 424 177 426
889 4 2 100 1 397 248 410 454
890 4 2 100 1 204 442 460 426
891 4 2 100 1 398 254 441 14
892 4 2 100 1 204 442 233 460
893 4 2 100 1 424 444 142 474
894 4 2 100 1 130 401 422 473
895 4 2 100 1 383 44 347 475
896 4 2 100 1 247 248 441 454
897 4 2 100 1 164 426 68 436
898 4 2 100 1 5 437 476 264
899 4 2 100 1 49 461 411 481
900 4 2 100 1 398 428 205 452
901 4 2 100 1 503 191 24 199
902 4 2 100 1 5 437 264 379
903 4 2 100 1 230 222 228 428
904 4 2 100 1 362 430 399 443
905 4 2 100 1 383 347 415 475
906 4 2 100 1 408 433 425 458
907 4 2 100 1 198 503 448 199
908 4 2 100 1 426 436 164 442
909 4 2 100 1 425 433 346 458
910 4 2 100 1 218 428 217 412
911 4 2 100 1 222 229 228 452
912 4 2 100 1 249 413 244 449
913 4 2 100 1 480 420 404 440
914 4 2 100 1 406 453 432 469
915 4 2 100 1 244 449 413 454
916 4 2 100 1 129 440 130 473
917 4 2 100 1 463 416 400 483
918 4 2 100 1 321 365 371 486
919 4 2 100 1 344 455 411 461
920 4 2 100 1 121 404 436 107
921 4 2 100 1 411 455 405 461
922 4 2 100 1 143 444 172 142
923 4 2 100 1 123 423 431 445
924 4 2 100 1 52 439 408 457
925 4 2 100 1 322 399 365 414
926 4 2 100 1 249 239 413 468
927 4 2 100 1 156 17 420 444
928 4 2 100 1 237 222 412 460
929 4 2 100 1 138 97 153 419
930 4 2 100 1 99 153 419 401
931 4 2 100 1 169 156 420 444
932 4 2 100 1 171 407 77 480
933 4 2 100 1 344 411 49 461
934 4 2 100 1 198 503 199 191
935 4 2 100 1 130 422 126 473
936 4 2 100 1 14 426 398 451
937 4 2 100 1 400 433 462 483
938 4 2 100 1 399 430 362 459
939 4 2 100 1 131 465 453 478
940 4 2 100 1 480 420 440 17
941 4 2 100 1 402 475 464 484
942 4 2 100 1 131 422 465 478
943 4 2 100 1 254 417 2 451
944 4 2 100 1 400 462 434 483
945 4 2 100 1 214 412 216 449
946 4 2 100 1 177 117 115 424
947 4 2 100 1 489 389 421 388
948 4 2 100 1 399 459 365 486
949 4 2 100 1 110 115 113 404
950 4 2 100 1 472 198 406 448
951 4 2 100 1 432 453 174 469
952 4 2 100 1 415 455 299 471
953 4 2 100 1 113 435 404 474
954 4 2 100 1 123 431 423 487
955 4 2 100 1 215 217 216 412
956 4 2 100 1 407 436 77 480
957 4 2 100 1 209 13 426 441
958 4 2 100 1 8 407 452 442
959 4 2 100 1 15 188 407 444
960 4 2 100 1 138 153 435 466
961 4 2 100 1 121 404 107 440
962 4 2 100 1 177 167 117 424
963 4 2 100 1 411 461 405 481
964 4 2 100 1 300 299 455 471
965 4 2 100 1 117 115 424 474
966 4 2 100 1 200 195 198 406
967 4 2 100 1 175 188 80 444
968 4 2 100 1 409 268 275 443
969 4 2 100 1 107 151 103 404
970 4 2 100 1 8 407 442 77
971 4 2 100 1 300 455 427 471
972 4 2 100 1 379 363 38 402
973 4 2 100 1 230 228 205 428
974 4 2 100 1 8 407 77 171
975 4 2 100 1 451 444 407 188
976 4 2 100 1 275 409 438 462
977 4 2 100 1 402 5 38 379
978 4 2 100 1 321 322 365 414
979 4 2 100 1 77 436 407 442
980 4 2 100 1 439 457 261 485
981 4 2 100 1 409 268 443 467
982 4 2 100 1 209 12 204 426
983 4 2 100 1 102 435 404 113
984 4 2 100 1 6 394 67 502
985 4 2 100 1 133 436 77 442
986 4 2 100 1 284 434 409 462
987 4 2 100 1 248 410 259 417
988 4 2 100 1 399 414 322 443
989 4 2 100 1 52 261 439 457
990 4 2 100 1 260 383 415 484
991 4 2 100 1 417 35 2 451
992 4 2 100 1 74 156 17 420
993 4 2 100 1 87 435 420 479
994 4 2 100 1 87 466 435 479
995 4 2 100 1 229 442 452 460
996 4 2 100 1 53 438 261 457
997 4 2 100 1 390 393 421 446
998 4 2 100 1 315 408 52 439
999 4 2 100 1 432 448 170 472
1000 4 2 100 1 134 422 130 401
1001 4 2 100 1 476 454 42 484
1002 4 2 100 1 438 261 457 485
1003 4 2 100 1 504 395 493 65
1004 4 2 100 1 407 451 188 452
1005 4 2 100 1 342 461 49 481
1006 4 2 100 1 428 217 412 468
1007 4 2 100 1 38 363 37 402
1008 4 2 100 1 406 448 198 469
1009 4 2 100 1 15 80 188 444
1010 4 2 100 1 271 421 489 430
1011 4 2 100 1 18 420 440 473
1012 4 2 100 1 129 130 126 473
1013 4 2 100 1 489 386 389 396
1014 4 2 100 1 99 102 153 401
1015 4 2 100 1 371 365 459 486
1016 4 2 100 1 97 99 153 419
1017 4 2 100 1 15 407 82 444
1018 4 2 100 1 392 393 446 459
1019 4 2 100 1 495 502 394 6
1020 4 2 100 1 404 444 424 474
1021 4 2 100 1 8 407 171 452
1022 4 2 100 1 229 442 460 203
1023 4 2 100 1 249 216 239 468
1024 4 2 100 1 409 434 284 447
1025 4 2 100 1 275 438 409 443
1026 4 2 100 1 106 107 404 440
1027 4 2 100 1 113 115 116 474
1028 4 2 100 1 11 204 12 426
1029 4 2 100 1 254 259 39 417
1030 4 2 100 1 111 131 422 465
1031 4 2 100 1 212 441 412 449
1032 4 2 100 1 362 399 375 443
1033 4 2 100 1 15 407 188 452
1034 4 2 100 1 282 433 328 483
1035 4 2 100 1 229 442 203 8
1036 4 2 100 1 335 416 328 433
1037 4 2 100 1 200 406 198 469
1038 4 2 100 1 463 416 483 292
1039 4 2 100 1 166 424 167 426
1040 4 2 100 1 285 282 328 483
1041 4 2 100 1 427 455 312 461
1042 4 2 100 1 130 112 126 422
1043 4 2 100 1 74 169 156 420
1044 4 2 100 1 45 347 44 475
1045 4 2 100 1 340 415 299 471
1046 4 2 100 1 77 436 181 480
1047 4 2 100 1 406 448 432 472
1048 4 2 100 1 413 449 397 454
1049 4 2 100 1 314 408 461 315
1050 4 2 100 1 332 470 458 481
1051 4 2 100 1 237 229 222 460
1052 4 2 100 1 123 176 423 445
1053 4 2 100 1 322 365 399 459
1054 4 2 100 1 39 259 410 417
1055 4 2 100 1 424 426 166 451
1056 4 2 100 1 5 410 40 476
1057 4 2 100 1 106 120 107 440
1058 4 2 100 1 260 415 476 484
1059 4 2 100 1 451 444 188 175
1060 4 2 100 1 187 82 15 407
1061 4 2 100 1 171 82 407 480
1062 4 2 100 1 332 470 481 331
1063 4 2 100 1 218 428 412 222
1064 4 2 100 1 424 426 407 436
1065 4 2 100 1 188 451 36 452
1066 4 2 100 1 411 437 363 481
1067 4 2 100 1 279 408 351 458
1068 4 2 100 1 335 341 328 416
1069 4 2 100 1 279 351 408 457
1070 4 2 100 1 279 408 433 457
1071 4 2 100 1 22 432 174 448
1072 4 2 100 1 308 312 427 455
1073 4 2 100 1 414 463 434 486
1074 4 2 100 1 45 241 240 464
1075 4 2 100 1 407 436 426 442
1076 4 2 100 1 211 412 212 441
1077 4 2 100 1 204 442 426 11
1078 4 2 100 1 187 171 82 407
1079 4 2 100 1 330 425 458 470
1080 4 2 100 1 409 268 467 349
1081 4 2 100 1 389 390 393 421
1082 4 2 100 1 133 164 436 442
1083 4 2 100 1 397 428 412 468
1084 4 2 100 1 453 465 403 478
1085 4 2 100 1 128 404 115 110
1086 4 2 100 1 502 362 430 459
1087 4 2 100 1 300 308 427 455
1088 4 2 100 1 102 435 113 153
1089 4 2 100 1 335 425 416 433
1090 4 2 100 1 279 334 346 458
1091 4 2 100 1 127 171 77 480
1092 4 2 100 1 286 409 284 447
1093 4 2 100 1 241 413 240 464
1094 4 2 100 1 155 170 432 448
1095 4 2 100 1 307 475 455 415
1096 4 2 100 1 18 440 135 473
1097 4 2 100 1 420 435 144 474
1098 4 2 100 1 52 315 51 408
1099 4 2 100 1 211 412 441 460
1100 4 2 100 1 375 399 362 459
1101 4 2 100 1 417 2 35 258
1102 4 2 100 1 257 223 428 468
1103 4 2 100 1 409 268 349 275
1104 4 2 100 1 171 407 187 452
1105 4 2 100 1 398 442 426 460
1106 4 2 100 1 39 410 253 417
1107 4 2 100 1 166 117 167 424
1108 4 2 100 1 406 431 423 445
1109 4 2 100 1 177 128 68 436
1110 4 2 100 1 476 454 484 410
1111 4 2 100 1 14 254 2 451
1112 4 2 100 1 413 252 464 468
1113 4 2 100 1 128 177 115 436
1114 4 2 100 1 197 406 445 195
1115 4 2 100 1 103 151 110 404
1116 4 2 100 1 229 442 8 452
1117 4 2 100 1 271 497 489 421
1118 4 2 100 1 495 499 386 430
1119 4 2 100 1 204 442 11 233
1120 4 2 100 1 72 424 166 451
1121 4 2 100 1 187 407 15 452
1122 4 2 100 1 123 431 178 445
1123 4 2 100 1 393 430 421 446
1124 4 2 100 1 50 49 342 461
1125 4 2 100 1 51 408 315 461
1126 4 2 100 1 413 464 429 468
1127 4 2 100 1 257 468 428 482
1128 4 2 100 1 113 116 435 474
1129 4 2 100 1 284 409 286 462
1130 4 2 100 1 52 53 261 457
1131 4 2 100 1 123 423 119 487
1132 4 2 100 1 157 435 87 466
1133 4 2 100 1 218 428 222 219
1134 4 2 100 1 486 463 373 414
1135 4 2 100 1 197 406 195 200
1136 4 2 100 1 302 415 340 471
1137 4 2 100 1 98 137 465 487
1138 4 2 100 1 408 343 52 457
1139 4 2 100 1 18 420 17 440
1140 4 2 100 1 502 362 459 273
1141 4 2 100 1 211 441 204 460
1142 4 2 100 1 402 476 415 484
1143 4 2 100 1 164 11 426 442
1144 4 2 100 1 423 445 176 456
1145 4 2 100 1 123 149 431 487
1146 4 2 100 1 431 432 170 472
1147 4 2 100 1 427 455 405 471
1148 4 2 100 1 310 383 347 415
1149 4 2 100 1 279 433 278 457
1150 4 2 100 1 261 315 52 439
1151 4 2 100 1 397 449 441 454
1152 4 2 100 1 107 120 121 440
1153 4 2 100 1 82 444 407 480
1154 4 2 100 1 11 68 164 426
1155 4 2 100 1 405 455 415 471
1156 4 2 100 1 302 470 415 471
1157 4 2 100 1 144 435 157 474
1158 4 2 100 1 307 475 415 347
1159 4 2 100 1 375 399 322 443
1160 4 2 100 1 333 363 437 481
1161 4 2 100 1 128 404 110 151
1162 4 2 100 1 360 489 499 430
1163 4 2 100 1 153 113 150 435
1164 4 2 100 1 221 249 244 449
1165 4 2 100 1 98 465 419 487
1166 4 2 100 1 295 293 416 427
1167 4 2 100 1 351 343 266 408
1168 4 2 100 1 311 446 421 447
1169 4 2 100 1 87 86 466 479
1170 4 2 100 1 332 470 331 330
1171 4 2 100 1 420 473 18 479
1172 4 2 100 1 418 466 86 479
1173 4 2 100 1 453 111 108 465
1174 4 2 100 1 295 427 416 471
1175 4 2 100 1 408 52 343 51
1176 4 2 100 1 405 455 427 461
1177 4 2 100 1 502 362 273 374
1178 4 2 100 1 428 217 468 220
1179 4 2 100 1 55 430 362 443
1180 4 2 100 1 476 40 454 410
1181 4 2 100 1 428 217 220 219
1182 4 2 100 1 367 446 311 447
1183 4 2 100 1 330 329 425 470
1184 4 2 100 1 363 272 411 481
1185 4 2 100 1 254 248 259 417
1186 4 2 100 1 279 277 351 457
1187 4 2 100 1 258 39 253 417
1188 4 2 100 1 120 106 130 440
1189 4 2 100 1 264 5 40 476
1190 4 2 100 1 472 198 448 192
1191 4 2 100 1 124 422 131 478
1192 4 2 100 1 297 293 323 439
1193 4 2 100 1 211 213 212 412
1194 4 2 100 1 389 421 393 430
1195 4 2 100 1 90 419 138 466
1196 4 2 100 1 170 432 431 477
1197 4 2 100 1 430 446 393 459
1198 4 2 100 1 314 408 315 439
1199 4 2 100 1 143 444 142 424
1200 4 2 100 1 75 18 17 440
1201 4 2 100 1 313 411 344 455
1202 4 2 100 1 418 450 86 466
1203 4 2 100 1 243 244 249 413
1204 4 2 100 1 263 421 311 446
1205 4 2 100 1 122 107 121 436
1206 4 2 100 1 314 408 439 427
1207 4 2 100 1 123 95 149 487
1208 4 2 100 1 307 415 455 299
1209 4 2 100 1 301 416 425 471
1210 4 2 100 1 328 433 416 483
1211 4 2 100 1 351 408 266 458
1212 4 2 100 1 244 251 449 454
1213 4 2 100 1 331 437 470 481
1214 4 2 100 1 160 453 423 456
1215 4 2 100 1 145 418 477 450
1216 4 2 100 1 67 394 385 502
1217 4 2 100 1 392 446 393 390
1218 4 2 100 1 406 445 195 472
1219 4 2 100 1 119 123 176 423
1220 4 2 100 1 330 305 329 470
1221 4 2 100 1 149 450 431 487
1222 4 2 100 1 342 458 266 461
1223 4 2 100 1 409 447 286 467
1224 4 2 100 1 333 363 379 437
1225 4 2 100 1 138 153 150 435
1226 4 2 100 1 174 453 132 469
1227 4 2 100 1 342 458 461 481
1228 4 2 100 1 339 286 284 447
1229 4 2 100 1 367 263 311 446
1230 4 2 100 1 172 169 142 444
1231 4 2 100 1 111 131 124 422
1232 4 2 100 1 257 429 468 482
1233 4 2 100 1 160 453 456 469
1234 4 2 100 1 127 77 181 480
1235 4 2 100 1 295 416 294 471
1236 4 2 100 1 78 174 432 453
1237 4 2 100 1 346 330 425 458
1238 4 2 100 1 224 213 211 412
1239 4 2 100 1 170 146 163 477
1240 4 2 100 1 104 98 137 465
1241 4 2 100 1 278 457 433 462
1242 4 2 100 1 51 266 343 408
1243 4 2 100 1 166 426 14 451
1244 4 2 100 1 268 345 443 467
1245 4 2 100 1 17 154 440 480
1246 4 2 100 1 78 453 432 478
1247 4 2 100 1 282 284 281 462
1248 4 2 100 1 343 408 351 457
1249 4 2 100 1 218 428 219 217
1250 4 2 100 1 4 378 47 464
1251 4 2 100 1 398 397 441 417
1252 4 2 100 1 175 36 188 451
1253 4 2 100 1 39 258 2 417
1254 4 2 100 1 406 432 431 472
1255 4 2 100 1 300 299 307 455
1256 4 2 100 1 257 225 223 468
1257 4 2 100 1 344 312 455 461
1258 4 2 100 1 279 351 334 458
1259 4 2 100 1 254 39 2 417
1260 4 2 100 1 401 440 420 473
1261 4 2 100 1 495 502 430 394
1262 4 2 100 1 131 453 78 478
1263 4 2 100 1 93 97 138 419
1264 4 2 100 1 328 416 341 483
1265 4 2 100 1 18 75 135 440
1266 4 2 100 1 246 247 441 454
1267 4 2 100 1 40 454 410 248
1268 4 2 100 1 332 470 330 458
1269 4 2 100 1 145 418 450 86
1270 4 2 100 1 502 393 385 459
1271 4 2 100 1 243 249 239 413
1272 4 2 100 1 142 144 140 474
1273 4 2 100 1 167 177 68 426
1274 4 2 100 1 141 424 142 474
1275 4 2 100 1 502 273 459 493
1276 4 2 100 1 257 429 225 468
1277 4 2 100 1 102 435 153 401
1278 4 2 100 1 249 214 216 449
1279 4 2 100 1 128 164 68 436
1280 4 2 100 1 157 87 88 466
1281 4 2 100 1 178 445 431 472
1282 4 2 100 1 301 294 416 471
1283 4 2 100 1 246 441 449 454
1284 4 2 100 1 224 412 211 460
1285 4 2 100 1 90 419 466 450
1286 4 2 100 1 344 274 49 411
1287 4 2 100 1 183 448 174 469
1288 4 2 100 1 400 414 409 438
1289 4 2 100 1 209 208 13 441
1290 4 2 100 1 226 413 484 454
1291 4 2 100 1 446 371 459 486
1292 4 2 100 1 275 54 438 443
1293 4 2 100 1 430 443 345 467
1294 4 2 100 1 117 116 115 474
1295 4 2 100 1 100 422 419 465
1296 4 2 100 1 432 423 453 406
1297 4 2 100 1 201 232 429 468
1298 4 2 100 1 422 100 401 134
1299 4 2 100 1 447 421 338 467
1300 4 2 100 1 266 458 408 461
1301 4 2 100 1 422 403 465 478
1302 4 2 100 1 106 107 103 404
1303 4 2 100 1 291 416 292 483
1304 4 2 100 1 414 438 366 443
1305 4 2 100 1 208 247 248 441
1306 4 2 100 1 220 428 223 468
1307 4 2 100 1 162 423 176 456
1308 4 2 100 1 100 419 422 401
1309 4 2 100 1 402 410 476 484
1310 4 2 100 1 338 447 467 286
1311 4 2 100 1 409 414 400 434
1312 4 2 100 1 284 434 287 447
1313 4 2 100 1 432 423 406 431
1314 4 2 100 1 322 399 375 459
1315 4 2 100 1 404 436 424 444
1316 4 2 100 1 160 108 423 453
1317 4 2 100 1 129 135 440 473
1318 4 2 100 1 432 423 431 403
1319 4 2 100 1 239 252 256 413
1320 4 2 100 1 331 305 330 470
1321 4 2 100 1 398 397 417 428
1322 4 2 100 1 294 295 293 416
1323 4 2 100 1 170 431 146 477
1324 4 2 100 1 275 268 54 443
1325 4 2 100 1 87 144 158 420
1326 4 2 100 1 100 419 98 465
1327 4 2 100 1 423 453 108 465
1328 4 2 100 1 149 450 487 92
1329 4 2 100 1 211 212 210 441
1330 4 2 100 1 237 222 218 412
1331 4 2 100 1 201 252 232 468
1332 4 2 100 1 203 229 237 460
1333 4 2 100 1 100 98 104 465
1334 4 2 100 1 309 308 312 427
1335 4 2 100 1 160 108 109 423
1336 4 2 100 1 422 100 134 105
1337 4 2 100 1 402 482 410 429
1338 4 2 100 1 367 446 447 486
1339 4 2 100 1 266 408 51 461
1340 4 2 100 1 322 414 366 443
1341 4 2 100 1 295 323 293 427
1342 4 2 100 1 504 493 395 459
1343 4 2 100 1 133 181 77 436
1344 4 2 100 1 150 113 116 435
1345 4 2 100 1 341 301 294 416
1346 4 2 100 1 134 422 105 112
1347 4 2 100 1 335 283 425 433
1348 4 2 100 1 279 280 278 433
1349 4 2 100 1 298 340 299 471
1350 4 2 100 1 349 336 409 462
1351 4 2 100 1 446 371 486 348
1352 4 2 100 1 89 86 145 450
1353 4 2 100 1 271 421 430 467
1354 4 2 100 1 366 438 414 485
1355 4 2 100 1 87 86 88 466
1356 4 2 100 1 149 450 92 94
1357 4 2 100 1 314 408 427 461
1358 4 2 100 1 451 143 444 175
1359 4 2 100 1 424 436 407 444
1360 4 2 100 1 400 416 408 433
1361 4 2 100 1 432 423 403 453
1362 4 2 100 1 226 413 454 244
1363 4 2 100 1 345 430 55 443
1364 4 2 100 1 122 151 107 436
1365 4 2 100 1 485 297 324 439
1366 4 2 100 1 123 149 178 431
1367 4 2 100 1 220 219 223 428
1368 4 2 100 1 423 465 137 487
1369 4 2 100 1 221 244 251 449
1370 4 2 100 1 283 346 425 433
1371 4 2 100 1 17 154 75 440
1372 4 2 100 1 140 144 157 474
1373 4 2 100 1 143 444 175 172
1374 4 2 100 1 202 241 44 484
1375 4 2 100 1 72 166 14 451
1376 4 2 100 1 212 412 214 449
1377 4 2 100 1 53 457 275 438
1378 4 2 100 1 335 328 283 433
1379 4 2 100 1 293 292 291 416
1380 4 2 100 1 500 445 148 472
1381 4 2 100 1 256 252 240 413
1382 4 2 100 1 363 361 272 481
1383 4 2 100 1 239 252 413 468
1384 4 2 100 1 279 278 277 457
1385 4 2 100 1 78 132 174 453
1386 4 2 100 1 202 413 241 484
1387 4 2 100 1 23 22 174 448
1388 4 2 100 1 134 422 112 130
1389 4 2 100 1 281 284 286 462
1390 4 2 100 1 21 477 432 76
1391 4 2 100 1 86 450 89 466
1392 4 2 100 1 40 454 248 247
1393 4 2 100 1 402 464 413 484
1394 4 2 100 1 87 420 158 479
1395 4 2 100 1 200 456 406 469
1396 4 2 100 1 226 413 244 202
1397 4 2 100 1 272 49 411 481
1398 4 2 100 1 280 433 282 462
1399 4 2 100 1 350 268 349 467
1400 4 2 100 1 117 424 118 474
1401 4 2 100 1 498 356 421 488
1402 4 2 100 1 411 415 402 437
1403 4 2 100 1 349 276 336 462
1404 4 2 100 1 402 482 429 37
1405 4 2 100 1 272 342 49 481
1406 4 2 100 1 489 386 499 430
1407 4 2 100 1 313 411 455 475
1408 4 2 100 1 209 13 12 426
1409 4 2 100 1 395 66 493 65
1410 4 2 100 1 252 240 413 464
1411 4 2 100 1 18 74 17 420
1412 4 2 100 1 329 346 330 425
1413 4 2 100 1 55 56 362 430
1414 4 2 100 1 40 454 247 41
1415 4 2 100 1 463 416 292 439
1416 4 2 100 1 143 424 72 451
1417 4 2 100 1 62 505 391 498
1418 4 2 100 1 383 260 43 484
1419 4 2 100 1 253 417 410 482
1420 4 2 100 1 486 373 463 296
1421 4 2 100 1 408 416 400 439
1422 4 2 100 1 309 300 308 427
1423 4 2 100 1 397 413 410 429
1424 4 2 100 1 145 418 86 85
1425 4 2 100 1 19 418 473 20
1426 4 2 100 1 155 432 22 448
1427 4 2 100 1 298 302 340 471
1428 4 2 100 1 7 8 171 452
1429 4 2 100 1 241 256 240 413
1430 4 2 100 1 268 350 345 467
1431 4 2 100 1 103 401 106 404
1432 4 2 100 1 281 280 282 462
1433 4 2 100 1 211 210 204 441
1434 4 2 100 1 1 15 188 452
1435 4 2 100 1 410 413 397 454
1436 4 2 100 1 435 466 401 479
1437 4 2 100 1 380 363 272 411
1438 4 2 100 1 399 414 409 447
1439 4 2 100 1 472 198 192 195
1440 4 2 100 1 53 275 457 262
1441 4 2 100 1 421 430 399 446
1442 4 2 100 1 414 463 320 485
1443 4 2 100 1 337 409 286 467
1444 4 2 100 1 21 477 76 152
1445 4 2 100 1 103 401 404 102
1446 4 2 100 1 400 438 457 485
1447 4 2 100 1 5 437 379 402
1448 4 2 100 1 366 414 319 485
1449 4 2 100 1 161 160 423 456
1450 4 2 100 1 109 137 423 465
1451 4 2 100 1 183 503 448 469
1452 4 2 100 1 355 415 304 476
1453 4 2 100 1 109 423 108 465
1454 4 2 100 1 267 315 314 461
1455 4 2 100 1 402 437 415 476
1456 4 2 100 1 353 488 497 421
1457 4 2 100 1 109 104 137 465
1458 4 2 100 1 237 412 245 460
1459 4 2 100 1 364 366 438 443
1460 4 2 100 1 337 349 409 467
1461 4 2 100 1 406 445 423 456
1462 4 2 100 1 224 245 213 412
1463 4 2 100 1 8 203 9 442
1464 4 2 100 1 233 11 10 442
1465 4 2 100 1 175 80 172 444
1466 4 2 100 1 437 304 415 476
1467 4 2 100 1 15 82 16 444
1468 4 2 100 1 405 458 425 470
1469 4 2 100 1 321 373 414 486
1470 4 2 100 1 407 442 451 452
1471 4 2 100 1 458 470 405 481
1472 4 2 100 1 143 184 175 451
1473 4 2 100 1 140 141 142 474
1474 4 2 100 1 84 418 86 479
1475 4 2 100 1 405 415 411 437
1476 4 2 100 1 401 419 418 466
1477 4 2 100 1 123 119 95 487
1478 4 2 100 1 401 404 420 440
1479 4 2 100 1 296 434 290 463
1480 4 2 100 1 407 442 426 451
1481 4 2 100 1 403 419 418 422
1482 4 2 100 1 408 405 425 427
1483 4 2 100 1 166 179 117 424
1484 4 2 100 1 342 358 266 458
1485 4 2 100 1 271 430 360 467
1486 4 2 100 1 415 470 405 471
1487 4 2 100 1 398 397 428 412
1488 4 2 100 1 36 205 1 452
1489 4 2 100 1 337 349 336 409
1490 4 2 100 1 476 454 40 41
1491 4 2 100 1 419 450 418 466
1492 4 2 100 1 437 415 304 470
1493 4 2 100 1 278 433 280 462
1494 4 2 100 1 226 413 202 484
1495 4 2 100 1 346 334 330 458
1496 4 2 100 1 149 450 94 431
1497 4 2 100 1 134 130 106 401
1498 4 2 100 1 271 497 421 353
1499 4 2 100 1 19 418 20 69
1500 4 2 100 1 62 357 505 498
1501 4 2 100 1 297 382 292 463
1502 4 2 100 1 160 159 453 469
1503 4 2 100 1 342 266 50 461
1504 4 2 100 1 398 397 412 441
1505 4 2 100 1 160 456 73 469
1506 4 2 100 1 277 343 351 457
1507 4 2 100 1 76 155 170 432
1508 4 2 100 1 492 173 448 472
1509 4 2 100 1 363 333 361 481
1510 4 2 100 1 295 300 427 471
1511 4 2 100 1 418 419 401 422
1512 4 2 100 1 42 454 41 206
1513 4 2 100 1 303 301 425 471
1514 4 2 100 1 83 420 18 479
1515 4 2 100 1 170 448 173 472
1516 4 2 100 1 400 457 439 485
1517 4 2 100 1 399 446 430 459
1518 4 2 100 1 222 230 219 428
1519 4 2 100 1 183 23 174 448
1520 4 2 100 1 124 131 136 478
1521 4 2 100 1 319 414 320 485
1522 4 2 100 1 215 218 217 412
1523 4 2 100 1 307 475 347 377
1524 4 2 100 1 50 344 49 461
1525 4 2 100 1 310 299 340 415
1526 4 2 100 1 90 419 450 93
1527 4 2 100 1 366 270 375 443
1528 4 2 100 1 4 207 37 429
1529 4 2 100 1 268 345 55 443
1530 4 2 100 1 370 354 304 437
1531 4 2 100 1 426 442 398 451
1532 4 2 100 1 303 425 470 471
1533 4 2 100 1 224 245 412 460
1534 4 2 100 1 152 76 163 477
1535 4 2 100 1 124 70 422 478
1536 4 2 100 1 391 498 505 446
1537 4 2 100 1 338 447 286 339
1538 4 2 100 1 321 371 373 486
1539 4 2 100 1 398 451 442 452
1540 4 2 100 1 436 444 404 480
1541 4 2 100 1 234 428 417 482
1542 4 2 100 1 423 453 406 456
1543 4 2 100 1 145 418 85 477
1544 4 2 100 1 418 419 403 450
1545 4 2 100 1 20 418 473 478
1546 4 2 100 1 409 414 399 443
1547 4 2 100 1 297 318 382 463
1548 4 2 100 1 87 84 86 479
1549 4 2 100 1 453 111 465 131
1550 4 2 100 1 99 101 102 401
1551 4 2 100 1 96 137 98 487
1552 4 2 100 1 286 409 336 462
1553 4 2 100 1 401 473 420 479
1554 4 2 100 1 284 285 287 434
1555 4 2 100 1 447 338 421 369
1556 4 2 100 1 420 435 401 479
1557 4 2 100 1 90 419 93 138
1558 4 2 100 1 364 438 54 443
1559 4 2 100 1 7 171 187 452
1560 4 2 100 1 265 446 459 491
1561 4 2 100 1 231 442 203 460
1562 4 2 100 1 296 373 327 486
1563 4 2 100 1 420 404 401 435
1564 4 2 100 1 286 337 336 409
1565 4 2 100 1 283 346 329 425
1566 4 2 100 1 441 212 242 449
1567 4 2 100 1 313 411 475 274
1568 4 2 100 1 9 203 231 442
1569 4 2 100 1 405 437 411 481
1570 4 2 100 1 407 444 436 480
1571 4 2 100 1 1 188 36 452
1572 4 2 100 1 97 93 96 419
1573 4 2 100 1 353 488 421 356
1574 4 2 100 1 404 435 420 474
1575 4 2 100 1 414 434 409 447
1576 4 2 100 1 295 299 300 471
1577 4 2 100 1 96 419 93 487
1578 4 2 100 1 306 434 325 486
1579 4 2 100 1 414 447 399 486
1580 4 2 100 1 410 413 402 429
1581 4 2 100 1 311 263 356 421
1582 4 2 100 1 74 18 83 420
1583 4 2 100 1 288 434 285 483
1584 4 2 100 1 260 476 42 484
1585 4 2 100 1 109 161 160 423
1586 4 2 100 1 502 393 459 430
1587 4 2 100 1 280 279 346 433
1588 4 2 100 1 121 440 125 480
1589 4 2 100 1 387 505 491 446
1590 4 2 100 1 289 288 285 483
1591 4 2 100 1 400 434 414 463
1592 4 2 100 1 408 425 405 458
1593 4 2 100 1 138 435 91 466
1594 4 2 100 1 375 362 273 459
1595 4 2 100 1 306 447 434 486
1596 4 2 100 1 407 426 424 451
1597 4 2 100 1 354 304 437 476
1598 4 2 100 1 500 165 445 490
1599 4 2 100 1 400 433 408 457
1600 4 2 100 1 129 126 135 473
1601 4 2 100 1 364 270 366 443
1602 4 2 100 1 88 86 89 466
1603 4 2 100 1 402 415 411 475
1604 4 2 100 1 96 98 419 487
1605 4 2 100 1 19 418 69 479
1606 4 2 100 1 406 456 453 469
1607 4 2 100 1 171 127 82 480
1608 4 2 100 1 164 10 11 442
1609 4 2 100 1 70 473 422 478
1610 4 2 100 1 387 505 446 391
1611 4 2 100 1 72 179 166 424
1612 4 2 100 1 431 450 94 477
1613 4 2 100 1 485 297 439 463
1614 4 2 100 1 143 142 141 424
1615 4 2 100 1 85 86 84 418
1616 4 2 100 1 20 152 69 418
1617 4 2 100 1 244 243 202 413
1618 4 2 100 1 446 459 399 486
1619 4 2 100 1 124 136 70 478
1620 4 2 100 1 296 434 463 486
1621 4 2 100 1 143 72 184 451
1622 4 2 100 1 311 421 369 447
1623 4 2 100 1 19 18 473 479
1624 4 2 100 1 414 438 400 485
1625 4 2 100 1 303 302 301 471
1626 4 2 100 1 476 454 41 42
1627 4 2 100 1 8 9 77 442
1628 4 2 100 1 103 401 102 101
1629 4 2 100 1 463 416 439 400
1630 4 2 100 1 380 272 48 411
1631 4 2 100 1 98 100 99 419
1632 4 2 100 1 117 118 116 474
1633 4 2 100 1 310 260 383 415
1634 4 2 100 1 419 450 93 487
1635 4 2 100 1 359 464 378 475
1636 4 2 100 1 408 425 416 427
1637 4 2 100 1 185 133 164 436
1638 4 2 100 1 312 314 427 461
1639 4 2 100 1 239 256 243 413
1640 4 2 100 1 502 56 430 362
1641 4 2 100 1 19 83 18 479
1642 4 2 100 1 51 315 267 461
1643 4 2 100 1 414 400 463 485
1644 4 2 100 1 138 150 91 435
1645 4 2 100 1 192 195 194 472
1646 4 2 100 1 70 20 473 478
1647 4 2 100 1 453 111 131 114
1648 4 2 100 1 170 155 173 448
1649 4 2 100 1 490 197 501 445
1650 4 2 100 1 467 360 345 430
1651 4 2 100 1 368 340 302 415
1652 4 2 100 1 378 411 274 475
1653 4 2 100 1 313 411 274 344
1654 4 2 100 1 303 470 302 471
1655 4 2 100 1 99 419 100 401
1656 4 2 100 1 1 187 15 452
1657 4 2 100 1 289 285 328 483
1658 4 2 100 1 265 446 491 372
1659 4 2 100 1 400 457 438 462
1660 4 2 100 1 367 326 446 486
1661 4 2 100 1 358 458 342 481
1662 4 2 100 1 121 120 125 440
1663 4 2 100 1 412 441 397 449
1664 4 2 100 1 432 453 403 478
1665 4 2 100 1 391 63 505 62
1666 4 2 100 1 490 197 30 501
1667 4 2 100 1 405 427 408 461
1668 4 2 100 1 329 303 425 470
1669 4 2 100 1 216 238 239 468
1670 4 2 100 1 431 445 406 472
1671 4 2 100 1 157 91 435 466
1672 4 2 100 1 166 13 14 426
1673 4 2 100 1 364 54 270 443
1674 4 2 100 1 408 439 400 457
1675 4 2 100 1 152 418 20 478
1676 4 2 100 1 158 144 169 420
1677 4 2 100 1 307 475 377 455
1678 4 2 100 1 136 131 78 478
1679 4 2 100 1 120 130 129 440
1680 4 2 100 1 453 111 114 108
1681 4 2 100 1 276 457 278 462
1682 4 2 100 1 21 477 152 478
1683 4 2 100 1 296 327 325 486
1684 4 2 100 1 246 449 251 454
1685 4 2 100 1 378 48 274 411
1686 4 2 100 1 415 304 470 302
1687 4 2 100 1 49 48 272 411
1688 4 2 100 1 198 503 191 469
1689 4 2 100 1 366 375 322 443
1690 4 2 100 1 156 169 172 444
1691 4 2 100 1 149 95 92 487
1692 4 2 100 1 467 345 360 350
1693 4 2 100 1 145 94 450 477
1694 4 2 100 1 111 422 105 465
1695 4 2 100 1 233 442 231 460
1696 4 2 100 1 245 237 218 412
1697 4 2 100 1 29 30 197 501
1698 4 2 100 1 258 253 236 417
1699 4 2 100 1 278 276 277 457
1700 4 2 100 1 52 262 53 457
1701 4 2 100 1 253 410 38 482
1702 4 2 100 1 160 73 159 469
1703 4 2 100 1 507 173 492 472
1704 4 2 100 1 501 176 445 456
1705 4 2 100 1 227 37 429 482
1706 4 2 100 1 472 198 195 406
1707 4 2 100 1 339 284 287 447
1708 4 2 100 1 421 446 399 447
1709 4 2 100 1 19 418 479 473
1710 4 2 100 1 328 341 289 483
1711 4 2 100 1 21 477 478 432
1712 4 2 100 1 216 217 238 468
1713 4 2 100 1 112 105 111 422
1714 4 2 100 1 11 12 68 426
1715 4 2 100 1 46 45 464 475
1716 4 2 100 1 157 88 91 466
1717 4 2 100 1 233 231 442 10
1718 4 2 100 1 411 415 405 455
1719 4 2 100 1 102 110 113 404
1720 4 2 100 1 27 26 496 196
1721 4 2 100 1 185 164 128 436
1722 4 2 100 1 498 390 421 446
1723 4 2 100 1 409 434 400 462
1724 4 2 100 1 261 316 315 439
1725 4 2 100 1 408 458 405 461
1726 4 2 100 1 446 371 348 265
1727 4 2 100 1 389 393 386 430
1728 4 2 100 1 10 164 133 442
1729 4 2 100 1 415 437 405 470
1730 4 2 100 1 434 447 414 486
1731 4 2 100 1 148 445 178 472
1732 4 2 100 1 316 439 261 485
1733 4 2 100 1 89 145 94 450
1734 4 2 100 1 355 415 476 260
1735 4 2 100 1 152 477 418 478
1736 4 2 100 1 300 307 308 455
1737 4 2 100 1 55 345 56 430
1738 4 2 100 1 75 129 135 440
1739 4 2 100 1 186 431 170 472
1740 4 2 100 1 323 427 324 439
1741 4 2 100 1 355 415 260 368
1742 4 2 100 1 152 85 418 477
1743 4 2 100 1 179 118 117 424
1744 4 2 100 1 456 196 27 496
1745 4 2 100 1 211 204 233 460
1746 4 2 100 1 288 325 306 434
1747 4 2 100 1 255 237 245 460
1748 4 2 100 1 74 83 158 420
1749 4 2 100 1 80 15 16 444
1750 4 2 100 1 359 274 313 475
1751 4 2 100 1 70 126 422 473
1752 4 2 100 1 344 312 313 455
1753 4 2 100 1 192 507 194 33
1754 4 2 100 1 261 438 364 485
1755 4 2 100 1 139 150 116 435
1756 4 2 100 1 126 124 70 422
1757 4 2 100 1 252 201 240 464
1758 4 2 100 1 121 181 122 436
1759 4 2 100 1 250 201 429 464
1760 4 2 100 1 133 77 9 442
1761 4 2 100 1 399 447 446 486
1762 4 2 100 1 400 438 409 462
1763 4 2 100 1 201 232 250 429
1764 4 2 100 1 398 441 412 460
1765 4 2 100 1 78 174 22 432
1766 4 2 100 1 212 214 412 213
1767 4 2 100 1 297 323 324 439
1768 4 2 100 1 116 139 435 474
1769 4 2 100 1 367 447 306 486
1770 4 2 100 1 243 241 202 413
1771 4 2 100 1 225 429 232 468
1772 4 2 100 1 271 360 376 467
1773 4 2 100 1 331 437 370 470
1774 4 2 100 1 390 389 384 421
1775 4 2 100 1 7 229 8 452
1776 4 2 100 1 370 437 304 470
1777 4 2 100 1 500 31 490 190
1778 4 2 100 1 255 203 237 460
1779 4 2 100 1 244 226 251 454
1780 4 2 100 1 118 424 141 474
1781 4 2 100 1 329 305 303 470
1782 4 2 100 1 250 429 4 464
1783 4 2 100 1 5 253 39 410
1784 4 2 100 1 283 329 335 425
1785 4 2 100 1 409 438 414 443
1786 4 2 100 1 295 300 323 427
1787 4 2 100 1 121 181 436 480
1788 4 2 100 1 416 427 425 471
1789 4 2 100 1 1 205 228 452
1790 4 2 100 1 423 431 403 487
1791 4 2 100 1 49 274 48 411
1792 4 2 100 1 500 190 490 445
1793 4 2 100 1 338 337 286 467
1794 4 2 100 1 36 175 35 451
1795 4 2 100 1 398 452 442 460
1796 4 2 100 1 441 242 212 210
1797 4 2 100 1 385 393 392 459
1798 4 2 100 1 416 425 408 433
1799 4 2 100 1 97 96 98 419
1800 4 2 100 1 265 371 365 459
1801 4 2 100 1 305 331 370 470
1802 4 2 100 1 85 69 152 418
1803 4 2 100 1 157 435 139 474
1804 4 2 100 1 5 39 259 410
1805 4 2 100 1 178 148 165 445
1806 4 2 100 1 287 434 306 447
1807 4 2 100 1 431 450 403 487
1808 4 2 100 1 384 389 388 421
1809 4 2 100 1 133 122 181 436
1810 4 2 100 1 251 246 242 449
1811 4 2 100 1 16 444 82 480
1812 4 2 100 1 425 427 405 471
1813 4 2 100 1 311 356 369 421
1814 4 2 100 1 158 420 83 479
1815 4 2 100 1 103 401 101 106
1816 4 2 100 1 327 373 371 486
1817 4 2 100 1 69 85 84 418
1818 4 2 100 1 287 288 306 434
1819 4 2 100 1 353 488 356 60
1820 4 2 100 1 502 393 430 394
1821 4 2 100 1 71 165 490 445
1822 4 2 100 1 197 406 200 456
1823 4 2 100 1 243 256 241 413
1824 4 2 100 1 186 146 170 431
1825 4 2 100 1 397 428 468 482
1826 4 2 100 1 98 99 97 419
1827 4 2 100 1 333 437 331 481
1828 4 2 100 1 317 366 319 485
1829 4 2 100 1 337 350 349 467
1830 4 2 100 1 197 406 456 445
1831 4 2 100 1 341 416 291 483
1832 4 2 100 1 332 333 331 481
1833 4 2 100 1 100 104 105 465
1834 4 2 100 1 161 423 162 456
1835 4 2 100 1 158 169 74 420
1836 4 2 100 1 373 320 414 463
1837 4 2 100 1 257 428 235 482
1838 4 2 100 1 168 162 176 456
1839 4 2 100 1 16 17 156 444
1840 4 2 100 1 43 260 42 484
1841 4 2 100 1 403 450 431 477
1842 4 2 100 1 253 236 417 482
1843 4 2 100 1 399 443 430 467
1844 4 2 100 1 335 303 301 425
1845 4 2 100 1 225 220 223 468
1846 4 2 100 1 422 100 105 465
1847 4 2 100 1 45 240 46 464
1848 4 2 100 1 281 286 336 462
1849 4 2 100 1 69 418 84 479
1850 4 2 100 1 271 467 338 421
1851 4 2 100 1 215 213 245 412
1852 4 2 100 1 270 362 375 443
1853 4 2 100 1 314 324 427 439
1854 4 2 100 1 208 246 247 441
1855 4 2 100 1 140 157 139 474
1856 4 2 100 1 377 347 269 475
1857 4 2 100 1 415 455 411 475
1858 4 2 100 1 23 155 22 448
1859 4 2 100 1 271 338 467 376
1860 4 2 100 1 76 22 155 432
1861 4 2 100 1 405 461 458 481
1862 4 2 100 1 257 223 235 428
1863 4 2 100 1 271 497 353 59
1864 4 2 100 1 154 125 75 440
1865 4 2 100 1 239 238 252 468
1866 4 2 100 1 154 125 440 480
1867 4 2 100 1 207 225 257 429
1868 4 2 100 1 413 429 397 468
1869 4 2 100 1 204 210 209 441
1870 4 2 100 1 160 114 108 453
1871 4 2 100 1 326 348 446 486
1872 4 2 100 1 312 267 314 461
1873 4 2 100 1 44 383 43 484
1874 4 2 100 1 403 453 423 465
1875 4 2 100 1 422 473 418 478
1876 4 2 100 1 456 197 501 28
1877 4 2 100 1 53 364 261 438
1878 4 2 100 1 501 176 456 168
1879 4 2 100 1 312 314 309 427
1880 4 2 100 1 93 450 92 487
1881 4 2 100 1 502 56 362 374
1882 4 2 100 1 353 488 60 497
1883 4 2 100 1 416 433 400 483
1884 4 2 100 1 283 280 346 433
1885 4 2 100 1 401 466 418 479
1886 4 2 100 1 290 463 434 483
1887 4 2 100 1 72 143 141 424
1888 4 2 100 1 403 419 465 487
1889 4 2 100 1 290 434 288 483
1890 4 2 100 1 190 500 31 194
1891 4 2 100 1 119 176 162 423
1892 4 2 100 1 197 28 29 501
1893 4 2 100 1 235 205 234 428
1894 4 2 100 1 409 443 399 467
1895 4 2 100 1 332 330 334 458
1896 4 2 100 1 102 103 110 404
1897 4 2 100 1 359 464 475 46
1898 4 2 100 1 283 328 282 433
1899 4 2 100 1 378 274 359 475
1900 4 2 100 1 146 431 94 477
1901 4 2 100 1 320 319 321 414
1902 4 2 100 1 215 245 218 412
1903 4 2 100 1 439 463 400 485
1904 4 2 100 1 225 250 232 429
1905 4 2 100 1 260 355 42 476
1906 4 2 100 1 5 259 40 410
1907 4 2 100 1 376 360 350 467
1908 4 2 100 1 351 266 358 458
1909 4 2 100 1 234 417 236 482
1910 4 2 100 1 409 399 447 467
1911 4 2 100 1 359 464 46 47
1912 4 2 100 1 281 278 280 462
1913 4 2 100 1 490 197 445 190
1914 4 2 100 1 197 501 445 456
1915 4 2 100 1 221 214 249 449
1916 4 2 100 1 403 465 423 487
1917 4 2 100 1 294 291 341 416
1918 4 2 100 1 498 390 446 391
1919 4 2 100 1 419 422 403 465
1920 4 2 100 1 498 356 488 61
1921 4 2 100 1 145 146 94 477
1922 4 2 100 1 437 405 470 481
1923 4 2 100 1 242 246 441 449
1924 4 2 100 1 408 427 416 439
1925 4 2 100 1 313 312 308 455
1926 4 2 100 1 359 464 47 378
1927 4 2 100 1 132 453 159 469
1928 4 2 100 1 318 319 320 485
1929 4 2 100 1 179 141 118 424
1930 4 2 100 1 392 491 395 459
1931 4 2 100 1 433 457 400 462
1932 4 2 100 1 224 255 245 460
1933 4 2 100 1 287 285 288 434
1934 4 2 100 1 321 319 322 414
1935 4 2 100 1 133 185 122 436
1936 4 2 100 1 352 365 322 459
1937 4 2 100 1 503 24 3 199
1938 4 2 100 1 78 432 21 478
1939 4 2 100 1 500 195 445 472
1940 4 2 100 1 294 293 291 416
1941 4 2 100 1 353 271 338 421
1942 4 2 100 1 347 45 269 475
1943 4 2 100 1 55 362 270 443
1944 4 2 100 1 418 422 401 473
1945 4 2 100 1 325 288 290 434
1946 4 2 100 1 410 417 397 482
1947 4 2 100 1 506 23 503 448
1948 4 2 100 1 319 366 322 414
1949 4 2 100 1 126 112 124 422
1950 4 2 100 1 147 178 431 472
1951 4 2 100 1 112 111 124 422
1952 4 2 100 1 354 355 304 476
1953 4 2 100 1 170 173 186 472
1954 4 2 100 1 119 423 137 487
1955 4 2 100 1 109 162 161 423
1956 4 2 100 1 183 174 81 469
1957 4 2 100 1 72 14 2 451
1958 4 2 100 1 485 297 463 318
1959 4 2 100 1 501 176 168 71
1960 4 2 100 1 109 108 104 465
1961 4 2 100 1 373 320 321 414
1962 4 2 100 1 367 306 326 486
1963 4 2 100 1 496 73 456 469
1964 4 2 100 1 340 260 310 415
1965 4 2 100 1 191 200 198 469
1966 4 2 100 1 431 432 403 477
1967 4 2 100 1 309 314 324 427
1968 4 2 100 1 309 324 323 427
1969 4 2 100 1 89 450 90 466
1970 4 2 100 1 227 38 37 482
1971 4 2 100 1 179 72 141 424
1972 4 2 100 1 501 176 71 445
1973 4 2 100 1 4 250 207 429
1974 4 2 100 1 206 41 247 454
1975 4 2 100 1 275 54 53 438
1976 4 2 100 1 505 372 491 446
1977 4 2 100 1 377 313 455 475
1978 4 2 100 1 140 118 141 474
1979 4 2 100 1 289 290 288 483
1980 4 2 100 1 403 422 418 478
1981 4 2 100 1 253 5 38 410
1982 4 2 100 1 174 132 81 469
1983 4 2 100 1 131 132 78 453
1984 4 2 100 1 198 503 469 448
1985 4 2 100 1 134 106 101 401
1986 4 2 100 1 402 429 413 464
1987 4 2 100 1 264 354 437 476
1988 4 2 100 1 318 320 463 485
1989 4 2 100 1 289 341 291 483
1990 4 2 100 1 317 261 364 485
1991 4 2 100 1 333 379 264 437
1992 4 2 100 1 183 503 23 448
1993 4 2 100 1 227 37 207 429
1994 4 2 100 1 381 499 495 430
1995 4 2 100 1 230 205 235 428
1996 4 2 100 1 357 367 326 446
1997 4 2 100 1 83 19 69 479
1998 4 2 100 1 421 447 399 467
1999 4 2 100 1 485 297 318 324
2000 4 2 100 1 358 332 458 481
2001 4 2 100 1 405 470 425 471
2002 4 2 100 1 202 44 43 484
2003 4 2 100 1 133 9 10 442
2004 4 2 100 1 361 342 272 481
2005 4 2 100 1 71 165 30 490
2006 4 2 100 1 264 40 354 476
2007 4 2 100 1 340 368 260 415
2008 4 2 100 1 373 296 320 463
2009 4 2 100 1 42 454 206 226
2010 4 2 100 1 183 81 494 469
2011 4 2 100 1 46 269 45 475
2012 4 2 100 1 167 68 12 426
2013 4 2 100 1 166 167 13 426
2014 4 2 100 1 276 262 277 457
2015 4 2 100 1 88 89 90 466
2016 4 2 100 1 135 19 18 473
2017 4 2 100 1 298 299 295 471
2018 4 2 100 1 42 454 226 484
2019 4 2 100 1 392 491 459 446
2020 4 2 100 1 10 9 231 442
2021 4 2 100 1 324 439 316 485
2022 4 2 100 1 223 219 230 428
2023 4 2 100 1 64 372 265 491
2024 4 2 100 1 335 329 303 425
2025 4 2 100 1 70 20 19 473
2026 4 2 100 1 397 468 429 482
2027 4 2 100 1 84 87 158 479
2028 4 2 100 1 301 302 298 471
2029 4 2 100 1 92 93 90 450
2030 4 2 100 1 292 463 290 483
2031 4 2 100 1 206 246 251 454
2032 4 2 100 1 73 160 161 456
2033 4 2 100 1 236 253 38 482
2034 4 2 100 1 242 246 210 441
2035 4 2 100 1 498 356 61 263
2036 4 2 100 1 250 4 47 464
2037 4 2 100 1 353 338 369 421
2038 4 2 100 1 89 94 92 450
2039 4 2 100 1 95 93 92 487
2040 4 2 100 1 264 354 370 437
2041 4 2 100 1 235 428 234 482
2042 4 2 100 1 228 229 7 452
2043 4 2 100 1 367 311 306 447
2044 4 2 100 1 283 282 280 433
2045 4 2 100 1 251 226 206 454
2046 4 2 100 1 377 269 313 475
2047 4 2 100 1 357 326 348 446
2048 4 2 100 1 418 450 403 477
2049 4 2 100 1 507 173 472 79
2050 4 2 100 1 227 429 257 482
2051 4 2 100 1 387 505 391 63
2052 4 2 100 1 217 220 238 468
2053 4 2 100 1 399 430 421 467
2054 4 2 100 1 70 136 20 478
2055 4 2 100 1 159 114 160 453
2056 4 2 100 1 301 298 294 471
2057 4 2 100 1 123 178 165 445
2058 4 2 100 1 71 176 123 445
2059 4 2 100 1 211 233 224 460
2060 4 2 100 1 154 16 82 480
2061 4 2 100 1 300 309 323 427
2062 4 2 100 1 227 207 257 429
2063 4 2 100 1 42 355 41 476
2064 4 2 100 1 136 78 21 478
2065 4 2 100 1 151 185 128 436
2066 4 2 100 1 505 372 446 357
2067 4 2 100 1 500 165 490 31
2068 4 2 100 1 55 54 268 443
2069 4 2 100 1 152 163 85 477
2070 4 2 100 1 266 51 50 461
2071 4 2 100 1 178 149 147 431
2072 4 2 100 1 231 203 255 460
2073 4 2 100 1 491 504 459 265
2074 4 2 100 1 192 507 33 492
2075 4 2 100 1 381 499 430 360
2076 4 2 100 1 403 450 419 487
2077 4 2 100 1 58 489 386 499
2078 4 2 100 1 53 54 364 438
2079 4 2 100 1 298 295 294 471
2080 4 2 100 1 403 477 432 478
2081 4 2 100 1 206 247 246 454
2082 4 2 100 1 151 122 185 436
2083 4 2 100 1 182 168 28 456
2084 4 2 100 1 339 311 369 447
2085 4 2 100 1 189 492 173 448
2086 4 2 100 1 415 304 302 368
2087 4 2 100 1 314 315 316 439
2088 4 2 100 1 162 109 137 423
2089 4 2 100 1 157 91 139 435
2090 4 2 100 1 490 197 190 30
2091 4 2 100 1 162 137 119 423
2092 4 2 100 1 168 161 162 456
2093 4 2 100 1 410 397 429 482
2094 4 2 100 1 7 187 1 452
2095 4 2 100 1 332 334 358 458
2096 4 2 100 1 324 316 318 485
2097 4 2 100 1 271 497 59 489
2098 4 2 100 1 387 392 390 446
2099 4 2 100 1 367 357 263 446
2100 4 2 100 1 392 491 446 387
2101 4 2 100 1 417 428 397 482
2102 4 2 100 1 381 495 56 430
2103 4 2 100 1 12 13 167 426
2104 4 2 100 1 119 137 96 487
2105 4 2 100 1 291 292 290 483
2106 4 2 100 1 148 79 500 472
2107 4 2 100 1 351 358 334 458
2108 4 2 100 1 358 342 361 481
2109 4 2 100 1 496 180 73 469
2110 4 2 100 1 269 359 313 475
2111 4 2 100 1 498 263 357 446
2112 4 2 100 1 159 132 114 453
2113 4 2 100 1 343 262 52 457
2114 4 2 100 1 387 505 63 491
2115 4 2 100 1 251 242 221 449
2116 4 2 100 1 352 322 375 459
2117 4 2 100 1 403 418 477 478
2118 4 2 100 1 91 150 139 435
2119 4 2 100 1 40 41 354 476
2120 4 2 100 1 502 273 493 67
2121 4 2 100 1 193 197 200 456
2122 4 2 100 1 267 312 344 461
2123 4 2 100 1 90 138 91 466
2124 4 2 100 1 506 23 448 189
2125 4 2 100 1 22 21 78 432
2126 4 2 100 1 89 92 90 450
2127 4 2 100 1 131 114 132 453
2128 4 2 100 1 385 493 67 502
2129 4 2 100 1 145 163 146 477
2130 4 2 100 1 418 473 401 479
2131 4 2 100 1 184 35 175 451
2132 4 2 100 1 200 196 456 469
2133 4 2 100 1 200 196 193 456
2134 4 2 100 1 327 371 348 486
2135 4 2 100 1 73 182 27 456
2136 4 2 100 1 356 353 369 421
2137 4 2 100 1 72 2 184 451
2138 4 2 100 1 296 290 292 463
2139 4 2 100 1 225 207 250 429
2140 4 2 100 1 314 316 324 439
2141 4 2 100 1 71 501 29 168
2142 4 2 100 1 343 277 262 457
2143 4 2 100 1 336 276 278 462
2144 4 2 100 1 345 360 381 430
2145 4 2 100 1 331 333 264 437
2146 4 2 100 1 165 71 123 445
2147 4 2 100 1 125 120 129 440
2148 4 2 100 1 55 270 54 443
2149 4 2 100 1 235 223 230 428
2150 4 2 100 1 352 273 493 459
2151 4 2 100 1 372 357 348 446
2152 4 2 100 1 156 80 16 444
2153 4 2 100 1 434 463 400 483
2154 4 2 100 1 83 69 84 479
2155 4 2 100 1 493 502 385 459
2156 4 2 100 1 358 361 332 481
2157 4 2 100 1 306 325 326 486
2158 4 2 100 1 494 81 25 469
2159 4 2 100 1 101 99 100 401
2160 4 2 100 1 228 7 1 452
2161 4 2 100 1 456 196 193 27
2162 4 2 100 1 375 273 352 459
2163 4 2 100 1 192 506 199 448
2164 4 2 100 1 190 195 197 445
2165 4 2 100 1 25 81 180 469
2166 4 2 100 1 121 127 181 480
2167 4 2 100 1 332 361 333 481
2168 4 2 100 1 84 158 83 479
2169 4 2 100 1 147 148 178 472
2170 4 2 100 1 318 320 382 463
2171 4 2 100 1 75 125 129 440
2172 4 2 100 1 46 240 201 464
2173 4 2 100 1 493 395 459 385
2174 4 2 100 1 108 111 105 465
2175 4 2 100 1 156 172 80 444
2176 4 2 100 1 186 147 146 431
2177 4 2 100 1 81 132 159 469
2178 4 2 100 1 393 394 386 430
2179 4 2 100 1 159 73 180 469
2180 4 2 100 1 66 493 352 273
2181 4 2 100 1 147 431 186 472
2182 4 2 100 1 287 311 339 447
2183 4 2 100 1 22 76 21 432
2184 4 2 100 1 331 264 370 437
2185 4 2 100 1 212 214 221 449
2186 4 2 100 1 21 152 20 478
2187 4 2 100 1 506 23 189 3
2188 4 2 100 1 287 306 311 447
2189 4 2 100 1 94 146 147 431
2190 4 2 100 1 305 370 304 470
2191 4 2 100 1 163 145 85 477
2192 4 2 100 1 96 93 95 487
2193 4 2 100 1 493 395 385 66
2194 4 2 100 1 121 125 127 480
2195 4 2 100 1 381 56 345 430
2196 4 2 100 1 81 494 24 183
2197 4 2 100 1 267 344 50 461
2198 4 2 100 1 149 94 147 431
2199 4 2 100 1 88 90 91 466
2200 4 2 100 1 336 278 281 462
2201 4 2 100 1 50 51 267 461
2202 4 2 100 1 189 173 155 448
2203 4 2 100 1 202 43 226 484
2204 4 2 100 1 209 210 246 441
2205 4 2 100 1 209 246 208 441
2206 4 2 100 1 70 135 126 473
2207 4 2 100 1 381 499 360 57
2208 4 2 100 1 189 492 34 173
2209 4 2 100 1 326 327 348 486
2210 4 2 100 1 502 393 394 385
2211 4 2 100 1 116 118 139 474
2212 4 2 100 1 161 182 73 456
2213 4 2 100 1 360 489 430 271
2214 4 2 100 1 289 291 290 483
2215 4 2 100 1 104 108 105 465
2216 4 2 100 1 359 269 46 475
2217 4 2 100 1 62 357 498 263
2218 4 2 100 1 354 41 355 476
2219 4 2 100 1 238 232 252 468
2220 4 2 100 1 381 499 57 495
2221 4 2 100 1 101 100 134 401
2222 4 2 100 1 307 377 308 455
2223 4 2 100 1 500 148 32 79
2224 4 2 100 1 173 79 186 472
2225 4 2 100 1 182 161 168 456
2226 4 2 100 1 233 231 224 460
2227 4 2 100 1 29 30 501 71
2228 4 2 100 1 303 304 302 470
2229 4 2 100 1 46 201 47 464
2230 4 2 100 1 139 118 140 474
2231 4 2 100 1 236 38 227 482
2232 4 2 100 1 227 257 235 482
2233 4 2 100 1 327 326 325 486
2234 4 2 100 1 296 292 382 463
2235 4 2 100 1 35 184 2 451
2236 4 2 100 1 212 221 242 449
2237 4 2 100 1 488 61 356 60
2238 4 2 100 1 318 317 319 485
2239 4 2 100 1 26 73 496 180
2240 4 2 100 1 224 231 255 460
2241 4 2 100 1 6 56 381 495
2242 4 2 100 1 42 226 43 484
2243 4 2 100 1 154 82 127 480
2244 4 2 100 1 303 305 304 470
2245 4 2 100 1 6 502 56 495
2246 4 2 100 1 500 32 31 194
2247 4 2 100 1 148 32 31 500
2248 4 2 100 1 492 506 448 189
2249 4 2 100 1 353 59 497 60
2250 4 2 100 1 250 47 201 464
2251 4 2 100 1 57 58 499 360
2252 4 2 100 1 119 96 95 487
2253 4 2 100 1 296 382 320 463
2254 4 2 100 1 155 23 189 448
2255 4 2 100 1 501 28 29 168
2256 4 2 100 1 70 19 135 473
2257 4 2 100 1 66 493 273 67
2258 4 2 100 1 220 225 232 468
2259 4 2 100 1 21 20 136 478
2260 4 2 100 1 127 125 154 480
2261 4 2 100 1 377 313 308 455
2262 4 2 100 1 492 33 34 173
2263 4 2 100 1 192 199 198 448
2264 4 2 100 1 147 79 148 472
2265 4 2 100 1 3 23 183 503
2266 4 2 100 1 62 498 61 263
2267 4 2 100 1 24 25 494 81
2268 4 2 100 1 505 63 357 62
2269 4 2 100 1 391 387 390 446
2270 4 2 100 1 27 26 73 496
2271 4 2 100 1 235 234 227 482
2272 4 2 100 1 316 261 317 485
2273 4 2 100 1 365 352 265 459
2274 4 2 100 1 506 23 3 503
2275 4 2 100 1 392 395 385 459
2276 4 2 100 1 376 350 337 467
2277 4 2 100 1 376 337 338 467
2278 4 2 100 1 265 352 504 459
2279 4 2 100 1 507 32 33 79
2280 4 2 100 1 504 265 64 65
2281 4 2 100 1 180 81 159 469
2282 4 2 100 1 59 58 271 489
2283 4 2 100 1 318 316 317 485
2284 4 2 100 1 265 504 352 65
2285 4 2 100 1 200 191 196 469
2286 4 2 100 1 165 31 30 490
2287 4 2 100 1 493 66 352 65
2288 4 2 100 1 6 502 67 374
2289 4 2 100 1 57 6 381 495
2290 4 2 100 1 147 186 79 472
2291 4 2 100 1 183 24 3 503
2292 4 2 100 1 227 234 236 482
2293 4 2 100 1 220 232 238 468
2294 4 2 100 1 189 3 34 506
2295 4 2 100 1 496 25 26 180
2296 4 2 100 1 64 63 372 491
2297 4 2 100 1 28 27 182 456
2298 4 2 100 1 428 452 222 228
2299 4 2 100 1 460 428 222 412
2300 4 2 100 1 462 285 483 282
2301 4 2 100 1 462 483 285 434
2302 4 2 100 1 398 35 234 417
2303 4 2 100 1 398 35 417 451
2304 4 2 100 1 458 433 279 408
2305 4 2 100 1 458 279 433 346
2306 4 2 100 1 432 469 448 406
2307 4 2 100 1 448 469 432 174
2308 4 2 100 1 464 241 484 45
2309 4 2 100 1 464 484 241 413
2310 4 2 100 1 462 349 275 409
2311 4 2 100 1 462 275 349 276
2312 4 2 100 1 462 275 457 438
2313 4 2 100 1 462 457 275 276
2314 4 2 100 1 500 195 190 445
2315 4 2 100 1 262 275 457 276
2316 4 2 100 1 214 412 213 215
2317 4 2 100 1 214 412 215 216
2318 4 2 100 1 435 144 87 420
2319 4 2 100 1 435 87 144 157
2320 4 2 100 1 464 468 201 429
2321 4 2 100 1 201 468 464 252
2322 4 2 100 1 463 439 292 297
2323 4 2 100 1 57 58 386 499
2324 4 2 100 1 293 292 439 297
2325 4 2 100 1 293 439 292 416
2326 4 2 100 1 296 434 486 325
2327 4 2 100 1 296 434 325 290
2328 4 2 100 1 307 415 299 310
2329 4 2 100 1 307 415 310 347
2330 4 2 100 1 402 482 37 38
2331 4 2 100 1 402 482 38 410
2332 4 2 100 1 335 416 301 341
2333 4 2 100 1 335 301 416 425
2334 4 2 100 1 498 390 384 421
2335 4 2 100 1 410 40 248 259
2336 4 2 100 1 484 410 413 402
2337 4 2 100 1 484 413 410 454
2338 4 2 100 1 427 293 439 323
2339 4 2 100 1 427 439 293 416
2340 4 2 100 1 507 500 32 79
2341 4 2 100 1 398 254 14 451
2342 4 2 100 1 14 248 441 208
2343 4 2 100 1 441 248 254 417
2344 4 2 100 1 35 236 417 258
2345 4 2 100 1 417 236 35 234
2346 4 2 100 1 477 76 170 432
2347 4 2 100 1 477 170 76 163
2348 4 2 100 1 355 415 368 304
2349 4 2 100 1 495 499 57 386
2350 4 2 100 1 500 195 472 194
2351 4 2 100 1 500 195 194 190
2352 4 2 100 1 488 498 61 384
2353 4 2 100 1 498 356 263 421
2354 4 2 100 1 338 447 339 369
2355 4 2 100 1 62 391 61 498
2356 4 2 100 1 265 446 372 348
2357 4 2 100 1 446 371 265 459
2358 4 2 100 1 480 16 17 154
2359 4 2 100 1 480 17 16 444
2360 4 2 100 1 364 485 366 317
2361 4 2 100 1 366 485 364 438
2362 4 2 100 1 25 469 196 191
2363 4 2 100 1 496 469 25 180
2364 4 2 100 1 421 498 488 384
2365 4 2 100 1 488 384 388 421
2366 4 2 100 1 388 384 488 60
2367 4 2 100 1 421 498 446 263
2368 4 2 100 1 384 61 488 60
2369 4 2 100 1 489 389 388 396
2370 4 2 100 1 58 386 489 396
2371 4 2 100 1 360 489 271 58
2372 4 2 100 1 489 388 59 396
2373 4 2 100 1 360 489 58 499
2374 4 2 100 1 59 58 489 396
2375 4 2 100 1 500 165 31 148
2376 4 2 100 1 490 501 30 71
2377 4 2 100 1 490 501 71 445
2378 4 2 100 1 500 165 148 445
2379 4 2 100 1 490 31 30 190
2380 4 2 100 1 392 491 387 395
2381 4 2 100 1 491 504 265 64
2382 4 2 100 1 505 372 357 63
2383 4 2 100 1 491 395 64 387
2384 4 2 100 1 505 372 63 491
2385 4 2 100 1 64 63 491 387
2386 4 2 100 1 192 492 448 472
2387 4 2 100 1 507 173 79 33
2388 4 2 100 1 507 173 33 492
2389 4 2 100 1 492 506 189 34
2390 4 2 100 1 192 506 448 492
2391 4 2 100 1 192 33 34 492
2392 4 2 100 1 456 501 168 28
2393 4 2 100 1 456 496 27 73
2394 4 2 100 1 456 197 28 193
2395 4 2 100 1 500 79 507 472
2396 4 2 100 1 28 27 456 193
2397 4 2 100 1 502 273 67 374
2398 4 2 100 1 6 56 502 374
2399 4 2 100 1 498 390 391 384
2400 4 2 100 1 491 395 504 64
2401 4 2 100 1 66 385 493 67
2402 4 2 100 1 183 494 503 469
2403 4 2 100 1 191 494 25 469
2404 4 2 100 1 494 503 24 183
2405 4 2 100 1 24 25 191 494
2406 4 2 100 1 504 493 352 65
2407 4 2 100 1 395 504 64 65
2408 4 2 100 1 254 248 441 14
2409 4 2 100 1 386 394 495 430
2410 4 2 100 1 505 498 357 446
2411 4 2 100 1 57 495 386 394
2412 4 2 100 1 502 56 495 430
2413 4 2 100 1 57 6 495 394
2414 4 2 100 1 504 352 493 459
2415 4 2 100 1 491 395 459 504
2416 4 2 100 1 196 25 26 496
2417 4 2 100 1 196 469 25 496
2418 4 2 100 1 497 489 421 388
2419 4 2 100 1 497 488 388 421
2420 4 2 100 1 497 489 388 59
2421 4 2 100 1 497 488 60 388
2422 4 2 100 1 497 59 388 60
2423 4 2 100 1 498 391 61 384
$EndElements
