ISO-10303-21;
HEADER;
/* Generated by software containing ST-Developer
 * from STEP Tools, Inc. (www.steptools.com) 
 */

FILE_DESCRIPTION(
/* description */ (''),
/* implementation_level */ '2;1');

FILE_NAME(
/* name */ 'elbow.step',
/* time_stamp */ '2025-12-11T22:37:25+08:00',
/* author */ ('86012'),
/* organization */ (''),
/* preprocessor_version */ 'ST-DEVELOPER v20.1',
/* originating_system */ 'AutoCAD Mechanical',
/* authorisation */ '');

FILE_SCHEMA (('AUTOMOTIVE_DESIGN { 1 0 10303 214 3 1 1 }'));
ENDSEC;

DATA;
#10=MECHANICAL_DESIGN_GEOMETRIC_PRESENTATION_REPRESENTATION('',(#14),#146);
#11=PRESENTATION_LAYER_ASSIGNMENT('0','0',(#15));
#12=SHAPE_REPRESENTATION_RELATIONSHIP('SRR','None',#152,#13);
#13=ADVANCED_BREP_SHAPE_REPRESENTATION('',(#15),#145);
#14=STYLED_ITEM('',(#161),#15);
#15=MANIFOLD_SOLID_BREP('481',#80);
#16=TOROIDAL_SURFACE('',#87,15.0000000000001,10.);
#17=PLANE('',#86);
#18=PLANE('',#93);
#19=FACE_OUTER_BOUND('',#24,.T.);
#20=FACE_OUTER_BOUND('',#25,.T.);
#21=FACE_OUTER_BOUND('',#26,.T.);
#22=FACE_OUTER_BOUND('',#27,.T.);
#23=FACE_OUTER_BOUND('',#28,.T.);
#24=EDGE_LOOP('',(#55,#56,#57,#58,#59));
#25=EDGE_LOOP('',(#60));
#26=EDGE_LOOP('',(#61,#62,#63,#64,#65,#66));
#27=EDGE_LOOP('',(#67,#68,#69,#70,#71));
#28=EDGE_LOOP('',(#72));
#29=LINE('',#128,#31);
#30=LINE('',#140,#32);
#31=VECTOR('',#100,10.);
#32=VECTOR('',#117,10.);
#33=CIRCLE('',#83,10.);
#34=CIRCLE('',#84,10.);
#35=CIRCLE('',#85,10.);
#36=CIRCLE('',#88,10.);
#37=CIRCLE('',#89,5.00000000000006);
#38=CIRCLE('',#90,10.);
#39=CIRCLE('',#92,10.);
#40=VERTEX_POINT('',#124);
#41=VERTEX_POINT('',#125);
#42=VERTEX_POINT('',#127);
#43=VERTEX_POINT('',#133);
#44=VERTEX_POINT('',#134);
#45=VERTEX_POINT('',#139);
#46=EDGE_CURVE('',#40,#41,#33,.T.);
#47=EDGE_CURVE('',#40,#42,#29,.T.);
#48=EDGE_CURVE('',#42,#42,#34,.T.);
#49=EDGE_CURVE('',#41,#40,#35,.T.);
#50=EDGE_CURVE('',#43,#44,#36,.T.);
#51=EDGE_CURVE('',#44,#41,#37,.T.);
#52=EDGE_CURVE('',#44,#43,#38,.T.);
#53=EDGE_CURVE('',#43,#45,#30,.T.);
#54=EDGE_CURVE('',#45,#45,#39,.T.);
#55=ORIENTED_EDGE('',*,*,#46,.F.);
#56=ORIENTED_EDGE('',*,*,#47,.T.);
#57=ORIENTED_EDGE('',*,*,#48,.T.);
#58=ORIENTED_EDGE('',*,*,#47,.F.);
#59=ORIENTED_EDGE('',*,*,#49,.F.);
#60=ORIENTED_EDGE('',*,*,#48,.F.);
#61=ORIENTED_EDGE('',*,*,#50,.T.);
#62=ORIENTED_EDGE('',*,*,#51,.T.);
#63=ORIENTED_EDGE('',*,*,#49,.T.);
#64=ORIENTED_EDGE('',*,*,#46,.T.);
#65=ORIENTED_EDGE('',*,*,#51,.F.);
#66=ORIENTED_EDGE('',*,*,#52,.T.);
#67=ORIENTED_EDGE('',*,*,#50,.F.);
#68=ORIENTED_EDGE('',*,*,#53,.T.);
#69=ORIENTED_EDGE('',*,*,#54,.T.);
#70=ORIENTED_EDGE('',*,*,#53,.F.);
#71=ORIENTED_EDGE('',*,*,#52,.F.);
#72=ORIENTED_EDGE('',*,*,#54,.F.);
#73=CYLINDRICAL_SURFACE('',#82,10.);
#74=CYLINDRICAL_SURFACE('',#91,10.);
#75=ADVANCED_FACE('',(#19),#73,.T.);
#76=ADVANCED_FACE('',(#20),#17,.F.);
#77=ADVANCED_FACE('',(#21),#16,.T.);
#78=ADVANCED_FACE('',(#22),#74,.T.);
#79=ADVANCED_FACE('',(#23),#18,.F.);
#80=CLOSED_SHELL('',(#75,#76,#77,#78,#79));
#81=AXIS2_PLACEMENT_3D('',#122,#94,#95);
#82=AXIS2_PLACEMENT_3D('',#123,#96,#97);
#83=AXIS2_PLACEMENT_3D('',#126,#98,#99);
#84=AXIS2_PLACEMENT_3D('',#129,#101,#102);
#85=AXIS2_PLACEMENT_3D('',#130,#103,#104);
#86=AXIS2_PLACEMENT_3D('',#131,#105,#106);
#87=AXIS2_PLACEMENT_3D('',#132,#107,#108);
#88=AXIS2_PLACEMENT_3D('',#135,#109,#110);
#89=AXIS2_PLACEMENT_3D('',#136,#111,#112);
#90=AXIS2_PLACEMENT_3D('',#137,#113,#114);
#91=AXIS2_PLACEMENT_3D('',#138,#115,#116);
#92=AXIS2_PLACEMENT_3D('',#141,#118,#119);
#93=AXIS2_PLACEMENT_3D('',#142,#120,#121);
#94=DIRECTION('axis',(0.,0.,1.));
#95=DIRECTION('refdir',(1.,0.,0.));
#96=DIRECTION('center_axis',(2.27373675443232E-14,-1.,6.12323399573677E-17));
#97=DIRECTION('ref_axis',(-1.,-2.27373675443232E-14,1.39226221920962E-30));
#98=DIRECTION('center_axis',(-8.90715302702198E-14,-1.,-1.67038775243581E-13));
#99=DIRECTION('ref_axis',(-1.,8.90715302702198E-14,0.));
#100=DIRECTION('',(-2.27373675443232E-14,1.,-6.12323399573677E-17));
#101=DIRECTION('center_axis',(0.,-1.,6.12323399573677E-17));
#102=DIRECTION('ref_axis',(-1.,0.,0.));
#103=DIRECTION('center_axis',(-8.90715302702198E-14,-1.,-1.67038775243581E-13));
#104=DIRECTION('ref_axis',(-1.,8.90715302702198E-14,0.));
#105=DIRECTION('center_axis',(0.,-1.,6.12323399573677E-17));
#106=DIRECTION('ref_axis',(1.,0.,0.));
#107=DIRECTION('center_axis',(1.,-8.20699758208614E-14,-8.87949435645666E-15));
#108=DIRECTION('ref_axis',(-9.09494701772926E-15,0.,-1.));
#109=DIRECTION('center_axis',(0.,0.,1.));
#110=DIRECTION('ref_axis',(-1.,0.,0.));
#111=DIRECTION('center_axis',(-1.,8.20699758208614E-14,8.87949435645666E-15));
#112=DIRECTION('ref_axis',(-8.87949435645666E-15,7.28739887135873E-28,-1.));
#113=DIRECTION('center_axis',(0.,0.,1.));
#114=DIRECTION('ref_axis',(-1.,0.,0.));
#115=DIRECTION('center_axis',(2.27373675443232E-14,0.,1.));
#116=DIRECTION('ref_axis',(-1.,0.,2.27373675443232E-14));
#117=DIRECTION('',(-2.27373675443232E-14,0.,-1.));
#118=DIRECTION('center_axis',(0.,0.,1.));
#119=DIRECTION('ref_axis',(-1.,0.,0.));
#120=DIRECTION('center_axis',(0.,0.,1.));
#121=DIRECTION('ref_axis',(1.,0.,0.));
#122=CARTESIAN_POINT('',(0.,0.,0.));
#123=CARTESIAN_POINT('Origin',(860.624272745487,892.245775886454,65.0000000000193));
#124=CARTESIAN_POINT('',(870.624272745488,842.245775886451,64.9999999999998));
#125=CARTESIAN_POINT('',(860.624272745488,842.245775886454,54.9999999999998));
#126=CARTESIAN_POINT('Origin',(860.624272745488,842.245775886452,64.9999999999998));
#127=CARTESIAN_POINT('',(870.624272745487,892.245775886454,65.0000000000193));
#128=CARTESIAN_POINT('',(870.624272745487,892.245775886455,65.0000000000193));
#129=CARTESIAN_POINT('Origin',(860.624272745487,892.245775886454,65.0000000000193));
#130=CARTESIAN_POINT('Origin',(860.624272745488,842.245775886452,64.9999999999998));
#131=CARTESIAN_POINT('Origin',(860.624272745487,892.245775886454,65.0000000000196));
#132=CARTESIAN_POINT('Origin',(860.624272745488,842.245775886454,49.9999999999997));
#133=CARTESIAN_POINT('',(870.624272745488,827.245775886454,50.0000000000194));
#134=CARTESIAN_POINT('',(860.624272745487,837.245775886454,50.0000000000194));
#135=CARTESIAN_POINT('Origin',(860.624272745488,827.245775886454,50.0000000000194));
#136=CARTESIAN_POINT('Origin',(860.624272745488,842.245775886454,49.9999999999997));
#137=CARTESIAN_POINT('Origin',(860.624272745488,827.245775886454,50.0000000000194));
#138=CARTESIAN_POINT('Origin',(860.624272745486,827.245775886454,1.93564441756917E-11));
#139=CARTESIAN_POINT('',(870.624272745486,827.245775886454,1.93564441756917E-11));
#140=CARTESIAN_POINT('',(870.624272745486,827.245775886454,1.91290705002485E-11));
#141=CARTESIAN_POINT('Origin',(860.624272745486,827.245775886454,1.93564441756917E-11));
#142=CARTESIAN_POINT('Origin',(860.624272745487,827.245775886455,1.93564441756917E-11));
#143=UNCERTAINTY_MEASURE_WITH_UNIT(LENGTH_MEASURE(0.01),#147,
'DISTANCE_ACCURACY_VALUE',
'Maximum model space distance between geometric entities at asserted c
onnectivities');
#144=UNCERTAINTY_MEASURE_WITH_UNIT(LENGTH_MEASURE(0.01),#147,
'DISTANCE_ACCURACY_VALUE',
'Maximum model space distance between geometric entities at asserted c
onnectivities');
#145=(
GEOMETRIC_REPRESENTATION_CONTEXT(3)
GLOBAL_UNCERTAINTY_ASSIGNED_CONTEXT((#143))
GLOBAL_UNIT_ASSIGNED_CONTEXT((#147,#148,#149))
REPRESENTATION_CONTEXT('','3D')
);
#146=(
GEOMETRIC_REPRESENTATION_CONTEXT(3)
GLOBAL_UNCERTAINTY_ASSIGNED_CONTEXT((#144))
GLOBAL_UNIT_ASSIGNED_CONTEXT((#147,#148,#149))
REPRESENTATION_CONTEXT('','3D')
);
#147=(
LENGTH_UNIT()
NAMED_UNIT(*)
SI_UNIT(.MILLI.,.METRE.)
);
#148=(
NAMED_UNIT(*)
PLANE_ANGLE_UNIT()
SI_UNIT($,.RADIAN.)
);
#149=(
NAMED_UNIT(*)
SI_UNIT($,.STERADIAN.)
SOLID_ANGLE_UNIT()
);
#150=SHAPE_DEFINITION_REPRESENTATION(#151,#152);
#151=PRODUCT_DEFINITION_SHAPE('',$,#154);
#152=SHAPE_REPRESENTATION('',(#81),#145);
#153=PRODUCT_DEFINITION_CONTEXT('part definition',#158,'design');
#154=PRODUCT_DEFINITION('Product','Product',#155,#153);
#155=PRODUCT_DEFINITION_FORMATION('',$,#160);
#156=PRODUCT_RELATED_PRODUCT_CATEGORY('Product','Product',(#160));
#157=APPLICATION_PROTOCOL_DEFINITION('international standard',
'automotive_design',2009,#158);
#158=APPLICATION_CONTEXT(
'Core Data for Automotive Mechanical Design Process');
#159=PRODUCT_CONTEXT('part definition',#158,'mechanical');
#160=PRODUCT('Product','Product',$,(#159));
#161=PRESENTATION_STYLE_ASSIGNMENT((#162));
#162=SURFACE_STYLE_USAGE(.BOTH.,#163);
#163=SURFACE_SIDE_STYLE('',(#164));
#164=SURFACE_STYLE_FILL_AREA(#165);
#165=FILL_AREA_STYLE('',(#166));
#166=FILL_AREA_STYLE_COLOUR('',#167);
#167=COLOUR_RGB('',1.,1.,1.);
ENDSEC;
END-ISO-10303-21;
